<svg id="Component_14_1" data-name="Component 14 – 1" xmlns="http://www.w3.org/2000/svg" width="48" height="48" viewBox="0 0 48 48">
  <g id="Rectangle_14492" data-name="Rectangle 14492" fill="#710038" stroke="#fff" stroke-width="2">
    <rect width="48" height="48" rx="24" stroke="none"/>
    <rect x="1" y="1" width="46" height="46" rx="23" fill="none"/>
  </g>
  <path id="Icon_feather-phone-call" data-name="Icon feather-phone-call" d="M18.033,6.087a5.739,5.739,0,0,1,4.538,4.53M18.033,1.5a10.331,10.331,0,0,1,9.134,9.105m-1.149,9.151V23.2a2.3,2.3,0,0,1-2.5,2.294A22.766,22.766,0,0,1,13.6,21.97,22.384,22.384,0,0,1,6.7,15.089,22.667,22.667,0,0,1,3.177,5.147a2.3,2.3,0,0,1,2.286-2.5H8.911a2.3,2.3,0,0,1,2.3,1.972,14.7,14.7,0,0,0,.8,3.222,2.29,2.29,0,0,1-.517,2.42l-1.459,1.456A18.366,18.366,0,0,0,16.93,18.6l1.459-1.456a2.3,2.3,0,0,1,2.424-.516,14.776,14.776,0,0,0,3.229.8A2.3,2.3,0,0,1,26.019,19.757Z" transform="translate(8.333 10)" fill="none" stroke="#fff" stroke-linecap="round" stroke-linejoin="round" stroke-width="2"/>
</svg>
