<svg id="Component_15_1" data-name="Component 15 – 1" xmlns="http://www.w3.org/2000/svg" width="48" height="48" viewBox="0 0 48 48">
  <g id="Rectangle_14491" data-name="Rectangle 14491" fill="#710038" stroke="#fff" stroke-width="2">
    <rect width="48" height="48" rx="24" stroke="none"/>
    <rect x="1" y="1" width="46" height="46" rx="23" fill="none"/>
  </g>
  <path id="Icon_awesome-instagram" data-name="Icon awesome-instagram" d="M12,8.084a6.153,6.153,0,1,0,6.152,6.153A6.143,6.143,0,0,0,12,8.084Zm0,10.154a4,4,0,1,1,4-4A4.007,4.007,0,0,1,12,18.238ZM19.836,7.833A1.435,1.435,0,1,1,18.4,6.4,1.432,1.432,0,0,1,19.836,7.833ZM23.91,9.289a7.1,7.1,0,0,0-1.938-5.029,7.147,7.147,0,0,0-5.028-1.939c-1.981-.112-7.919-.112-9.9,0A7.137,7.137,0,0,0,2.017,4.255,7.127,7.127,0,0,0,.079,9.284c-.112,1.981-.112,7.921,0,9.9a7.1,7.1,0,0,0,1.938,5.029,7.156,7.156,0,0,0,5.028,1.939c1.981.112,7.919.112,9.9,0a7.1,7.1,0,0,0,5.028-1.939,7.15,7.15,0,0,0,1.938-5.029c.112-1.981.112-7.915,0-9.9ZM21.351,21.312a4.05,4.05,0,0,1-2.281,2.281c-1.579.627-5.327.482-7.073.482s-5.5.139-7.073-.482a4.05,4.05,0,0,1-2.281-2.281c-.626-1.58-.482-5.329-.482-7.074s-.139-5.5.482-7.074A4.05,4.05,0,0,1,4.925,4.882C6.5,4.255,10.252,4.4,12,4.4s5.5-.139,7.073.482a4.05,4.05,0,0,1,2.281,2.281c.626,1.58.482,5.329.482,7.074S21.978,19.738,21.351,21.312Z" transform="translate(12.005 9.762)" fill="#fff"/>
</svg>
