<svg id="Component_16_1" data-name="Component 16 – 1" xmlns="http://www.w3.org/2000/svg" width="48" height="48" viewBox="0 0 48 48">
  <g id="Rectangle_14491" data-name="Rectangle 14491" fill="#710038" stroke="#fff" stroke-width="2">
    <rect width="48" height="48" rx="24" stroke="none"/>
    <rect x="1" y="1" width="46" height="46" rx="23" fill="none"/>
  </g>
  <path id="Icon_material-my-location" data-name="Icon material-my-location" d="M13.5,9.136A4.364,4.364,0,1,0,17.864,13.5,4.362,4.362,0,0,0,13.5,9.136Zm9.753,3.273a9.812,9.812,0,0,0-8.662-8.662V1.5H12.409V3.747a9.812,9.812,0,0,0-8.662,8.662H1.5v2.182H3.747a9.812,9.812,0,0,0,8.662,8.662V25.5h2.182V23.253a9.812,9.812,0,0,0,8.662-8.662H25.5V12.409ZM13.5,21.136A7.636,7.636,0,1,1,21.136,13.5,7.631,7.631,0,0,1,13.5,21.136Z" transform="translate(10.5 10.5)" fill="#fff"/>
</svg>
