<svg xmlns="http://www.w3.org/2000/svg" width="57.422" height="60" viewBox="0 0 57.422 60">
  <g id="svgexport-8" transform="translate(-11)">
    <path id="Path_7039" data-name="Path 7039" d="M40.59.125l-.879.7-.879-.7a28.711,28.711,0,1,0,1.758,0Z" transform="translate(0 -0.11)" fill="#ffdd40"/>
    <ellipse id="Ellipse_13" data-name="Ellipse 13" cx="23.213" cy="23.519" rx="23.213" ry="23.519" transform="translate(16.498 6.787)" fill="#ffc839"/>
    <path id="Path_7040" data-name="Path 7040" d="M41.612,113.346,67,117.823a2.344,2.344,0,0,0,2.715-1.9l7.326-41.547a2.344,2.344,0,0,0-1.9-2.715l-25.39-4.477a2.344,2.344,0,0,0-2.715,1.9l-7.326,41.547a2.344,2.344,0,0,0,1.9,2.715Z" transform="translate(-25.314 -59.278)" fill="#fcf2c8"/>
    <path id="Path_7041" data-name="Path 7041" d="M103.8,416.975,84.76,413.617a.879.879,0,1,1,.305-1.731l19.042,3.358a.879.879,0,1,1-.305,1.731Z" transform="translate(-64.475 -363.606)" fill="#6c5475"/>
    <path id="Path_7042" data-name="Path 7042" d="M88.665,413.412a.879.879,0,0,1,1.018-.713l-4.616-.814a.879.879,0,1,0-.305,1.731l4.616.814A.879.879,0,0,1,88.665,413.412Z" transform="translate(-64.476 -363.606)" fill="#543e5b"/>
    <path id="Path_7043" data-name="Path 7043" d="M109.012,387.431,89.97,384.073a.879.879,0,0,1,.305-1.731l19.042,3.358a.879.879,0,1,1-.305,1.731Z" transform="translate(-69.075 -337.525)" fill="#6c5475"/>
    <path id="Path_7044" data-name="Path 7044" d="M93.874,383.868a.879.879,0,0,1,1.018-.713l-4.616-.814a.879.879,0,1,0-.305,1.731l4.616.814A.879.879,0,0,1,93.874,383.868Z" transform="translate(-69.075 -337.524)" fill="#543e5b"/>
    <path id="Path_7045" data-name="Path 7045" d="M114.221,357.886l-19.042-3.358a.879.879,0,1,1,.305-1.731l19.042,3.358a.879.879,0,1,1-.305,1.731Z" transform="translate(-73.673 -311.442)" fill="#6c5475"/>
    <path id="Path_7046" data-name="Path 7046" d="M99.084,354.324a.879.879,0,0,1,1.018-.713l-4.616-.814a.879.879,0,1,0-.305,1.731l4.616.814A.879.879,0,0,1,99.084,354.324Z" transform="translate(-73.674 -311.442)" fill="#543e5b"/>
    <path id="Path_7047" data-name="Path 7047" d="M169.757,84.427,144.368,88.9a2.344,2.344,0,0,1-2.715-1.9l-6.89-39.076a3.515,3.515,0,0,1,.469-2.454L141.1,35.94a3.515,3.515,0,0,1,2.383-1.618l8.431-1.487a3.516,3.516,0,0,1,2.793.706l8.778,6.949a3.516,3.516,0,0,1,1.28,2.146l6.89,39.076A2.344,2.344,0,0,1,169.757,84.427Z" transform="translate(-109.212 -28.94)" fill="#ff4155"/>
    <path id="Path_7048" data-name="Path 7048" d="M151.213,85.32l-6.89-39.076a3.515,3.515,0,0,1,.469-2.454l5.872-9.532a3.516,3.516,0,0,1,1.827-1.472,3.524,3.524,0,0,0-.572.053l-8.431,1.487a3.515,3.515,0,0,0-2.383,1.618l-5.872,9.532a3.515,3.515,0,0,0-.469,2.454l6.89,39.076a2.344,2.344,0,0,0,2.715,1.9l9.559-1.686A2.344,2.344,0,0,1,151.213,85.32Z" transform="translate(-109.213 -28.943)" fill="#e80054"/>
    <circle id="Ellipse_14" data-name="Ellipse 14" cx="3.516" cy="3.516" r="3.516" transform="translate(35.64 8.701) rotate(-10.02)" fill="#ff7186"/>
    <circle id="Ellipse_15" data-name="Ellipse 15" cx="1.758" cy="1.758" r="1.758" transform="translate(37.953 9.805)" fill="#ffc839"/>
    <path id="Path_7049" data-name="Path 7049" d="M258.407,399.66,243.981,402.2a.879.879,0,1,1-.305-1.731l14.426-2.544a.879.879,0,0,1,.305,1.731Z" transform="translate(-204.768 -351.284)" fill="#fff"/>
    <path id="Path_7050" data-name="Path 7050" d="M247.58,413.808a.879.879,0,0,1,.713-1.018l-4.616.814a.879.879,0,0,0,.305,1.731l4.616-.814A.879.879,0,0,1,247.58,413.808Z" transform="translate(-204.768 -364.416)" fill="#fcf2c8"/>
    <path id="Path_7051" data-name="Path 7051" d="M278.7,432.676l-9.81,1.73a.879.879,0,1,1-.305-1.731l9.81-1.73a.879.879,0,0,1,.305,1.731Z" transform="translate(-226.756 -380.432)" fill="#fff"/>
    <path id="Path_7052" data-name="Path 7052" d="M272.486,439.88a.879.879,0,0,1,.713-1.018l-4.616.814a.879.879,0,1,0,.305,1.731l4.616-.814A.879.879,0,0,1,272.486,439.88Z" transform="translate(-226.756 -387.433)" fill="#fcf2c8"/>
    <path id="Path_7053" data-name="Path 7053" d="M188.051,192.834a1.783,1.783,0,0,1-1.986-2.358l6.766-18.85a1.783,1.783,0,0,1,3.355,1.2l-6.766,18.85A1.782,1.782,0,0,1,188.051,192.834Zm-3.718-9.875a5.316,5.316,0,1,1,3.81-6.045A5.07,5.07,0,0,1,184.333,182.958Zm-1.219-6.911c-.66.117-1.081.994-.919,1.915s.858,1.6,1.518,1.485,1.081-.993.919-1.915S183.775,175.931,183.114,176.047Zm16.642,14.722a5.316,5.316,0,1,1,3.81-6.045A5.07,5.07,0,0,1,199.757,190.769Zm-1.219-6.911c-.66.116-1.081.994-.919,1.915s.858,1.6,1.518,1.486,1.081-.994.919-1.915S199.2,183.741,198.538,183.858Z" transform="translate(-147.956 -150.471)" fill="#fff"/>
    <path id="Path_7054" data-name="Path 7054" d="M198.334,200.625a1.826,1.826,0,0,1-.914-3.457,5.372,5.372,0,0,0,1.827,10.36,1.826,1.826,0,0,1-.324-3.561,1.923,1.923,0,0,1-.589-3.342ZM182.9,192.783a1.826,1.826,0,0,1-.914-3.457,5.372,5.372,0,0,0,1.827,10.36,1.826,1.826,0,0,1-.324-3.561,1.923,1.923,0,0,1-.589-3.342Zm8.54,7.337a1.827,1.827,0,0,1-2.131-2.024l-3.247,9.047a1.782,1.782,0,1,0,3.355,1.2l3.251-9.056A1.819,1.819,0,0,1,191.445,200.12Z" transform="translate(-147.958 -167.139)" fill="#fcf2c8"/>
    <path id="Path_7055" data-name="Path 7055" d="M249.379,0c-.294,0-.587.006-.879.015V10.684a.879.879,0,1,0,1.758,0V.015C249.966.006,249.673,0,249.379,0Z" transform="translate(-209.668)" fill="#543e5b"/>
  </g>
</svg>
