<svg xmlns="http://www.w3.org/2000/svg" width="59" height="48.85" viewBox="0 0 59 48.85">
  <g id="Group_42187" data-name="Group 42187" transform="translate(803.246 -1596.598)">
    <path id="Path_239" data-name="Path 239" d="M142.206,540.619c0-.685.025-1.331-.008-1.975a.967.967,0,0,0-1.919-.046c-.049.66-.012,1.326-.012,2.02ZM137.684,570.2h7.094a2.609,2.609,0,0,0-2.375-1.927c-.784-.034-1.571-.035-2.355,0a2.651,2.651,0,0,0-2.365,1.925Zm-1.93.143c.069-.2.143-.388.2-.586a3.981,3.981,0,0,1,1.872-2.458,1.276,1.276,0,0,0,.706-1.365q-.027-9.966,0-19.93a1.415,1.415,0,0,0-.341-.98,2.675,2.675,0,0,1,.044-3.4,1.412,1.412,0,0,0,.277-.759c.038-.689,0-1.381.016-2.073a2.606,2.606,0,0,1,1.468-2.426.584.584,0,0,0,.377-.665,2.567,2.567,0,0,1,0-.459,1.627,1.627,0,0,0-.82-1.825,2.471,2.471,0,0,1-.839-3.029,2.7,2.7,0,0,1,5.147.311,2.573,2.573,0,0,1-1.192,2.923.929.929,0,0,0-.572,1.08,1.723,1.723,0,0,1,0,.461,1.21,1.21,0,0,0,.7,1.413,2.351,2.351,0,0,1,1.145,2.134c.011.441.016.883,0,1.325a3.08,3.08,0,0,0,.518,1.967,2.639,2.639,0,0,1-2.062,4.045c-.684.053-1.376.008-2.1.008V566.5h1.922V549.418a4.455,4.455,0,0,1,.012-.575.838.838,0,0,1,.908-.773.807.807,0,0,1,.8.817c.015.172.006.345.006.518q0,8.41-.008,16.819a.92.92,0,0,0,.518.946,4.336,4.336,0,0,1,2.251,3.776.861.861,0,0,1-.976,1c-3,.009-5.991.022-8.985-.021-.332,0-.66-.355-.99-.546v-1.037Z" transform="translate(-939 1073.489)" fill="#710038"/>
    <path id="Path_240" data-name="Path 240" d="M193.7,532.329a.974.974,0,0,0,.991-.973,1.007,1.007,0,0,0-1-.979.994.994,0,0,0-.955.959.957.957,0,0,0,.963.992Zm.006,12.01c.325,0,.653.022.976-.006a.964.964,0,0,0,.037-1.925,15.467,15.467,0,0,0-2.009,0,.93.93,0,0,0-.9,1,.942.942,0,0,0,.916.925c.323.028.65,0,.976.006Zm-.925,1.778V566.5h1.889v-20.38ZM191,556.107c0-3.4.006-6.8-.013-10.2a1.431,1.431,0,0,0-.3-.808,2.757,2.757,0,0,1,0-3.46,1.548,1.548,0,0,0,.3-.811c.043-.669.011-1.343.015-2.015a2.736,2.736,0,0,1,1.484-2.488.952.952,0,0,0,.348-.545,3.979,3.979,0,0,0,.016-.687,1.437,1.437,0,0,0-.767-1.617,2.527,2.527,0,0,1-.915-3.065,2.749,2.749,0,0,1,2.649-1.765,2.717,2.717,0,0,1,2.5,2.032,2.607,2.607,0,0,1-1.211,2.97.846.846,0,0,0-.538.982,1.552,1.552,0,0,1,0,.345c-.054.7-.029,1.268.771,1.671a2.253,2.253,0,0,1,1.071,2.054c.016.4.006.806,0,1.209a3.083,3.083,0,0,0,.529,2.14,2.506,2.506,0,0,1-.226,3.053,1.437,1.437,0,0,0-.29.811c-.016,6.818-.009,13.634-.022,20.452a.744.744,0,0,0,.444.756,4.434,4.434,0,0,1,2.323,3.685c.064.789-.278,1.143-1.071,1.144q-4.407.008-8.814,0c-.771,0-1.1-.332-1.052-1.1a4.374,4.374,0,0,1,2.33-3.732.741.741,0,0,0,.438-.757c-.015-3.418-.008-6.837-.008-10.255Z" transform="translate(-943.436 1073.489)" fill="#710038"/>
    <path id="Path_241" data-name="Path 241" d="M174.31,538.692q1.7-.012,3.4,0a1.919,1.919,0,0,1,1.164,3.513q-2.571,1.9-5.173,3.753a.621.621,0,0,0-.284.841c.668,1.979,1.3,3.97,1.941,5.96a1.944,1.944,0,0,1-.637,2.363,1.922,1.922,0,0,1-2.445-.145c-1.695-1.227-3.394-2.447-5.072-3.7a.586.586,0,0,0-.841.009q-2.568,1.9-5.169,3.759a1.913,1.913,0,0,1-3.111-1.175,2.578,2.578,0,0,1,.141-1.122c.613-1.956,1.238-3.91,1.9-5.852a.714.714,0,0,0-.3-.986c-1.726-1.215-3.424-2.471-5.13-3.713a1.861,1.861,0,0,1-.806-1.958,1.789,1.789,0,0,1,1.305-1.467,2.982,2.982,0,0,1,.853-.083c2.074-.006,4.148-.016,6.222.007a.6.6,0,0,0,.687-.5q.972-3.069,1.988-6.125a1.886,1.886,0,0,1,2.392-1.324,1.792,1.792,0,0,1,1.273,1.224c.792,2.4,1.57,4.3,2.342,6.71C171.323,538.76,173.685,538.7,174.31,538.692Z" transform="translate(-940.529 1073.318)" fill="#710038"/>
    <path id="Path_242" data-name="Path 242" d="M151.863,571.828h29.2c-.311-1.37-.611-2.709-.919-4.045q-2.148-9.3-4.3-18.6c-.017-.074-.037-.148-.049-.224a.868.868,0,1,1,1.694-.347c.363,1.529.709,3.062,1.062,4.595q2.164,9.386,4.329,18.774c.038.168.083.335.113.505a.87.87,0,0,1-.812,1.087,4.306,4.306,0,0,1-.46.007H151.127c-1.065,0-1.38-.395-1.139-1.438q1.685-7.314,3.377-14.626c.673-2.914,1.335-5.831,2.039-8.737a1.4,1.4,0,0,1,.62-.867c.679-.32,1.252.328,1.067,1.164-.265,1.2-.551,2.391-.828,3.587q-2.157,9.33-4.314,18.659c-.034.148-.051.3-.087.509Z" transform="translate(-940.197 1071.868)" fill="#710038"/>
    <path id="Path_243" data-name="Path 243" d="M168.76,525.375c0,.575.017,1.151-.006,1.726a.858.858,0,1,1-1.711-.021q-.029-1.782,0-3.567a.857.857,0,0,1,.837-.915.874.874,0,0,1,.875.936c.021.613,0,1.228,0,1.841Z" transform="translate(-941.643 1074)" fill="#710038"/>
    <path id="Path_244" data-name="Path 244" d="M163.764,530.314a3.811,3.811,0,0,1-.721-.41c-.6-.564-1.176-1.148-1.746-1.74a.857.857,0,0,1-.052-1.275.839.839,0,0,1,1.27.064,24.8,24.8,0,0,1,1.764,1.8,1.153,1.153,0,0,1,.166.934c-.073.245-.428.408-.68.627Z" transform="translate(-941.133 1073.659)" fill="#710038"/>
    <path id="Path_245" data-name="Path 245" d="M171.837,530.262c-.2-.156-.527-.294-.618-.525a1.053,1.053,0,0,1,.061-.894,25.443,25.443,0,0,1,2.016-2.032.747.747,0,0,1,1.088.075.729.729,0,0,1,.126,1.038c-.675.751-1.414,1.445-2.14,2.147-.1.094-.277.1-.533.19Z" transform="translate(-941.992 1073.661)" fill="#710038"/>
  </g>
</svg>
