<svg xmlns="http://www.w3.org/2000/svg" width="60" height="58.855" viewBox="0 0 60 58.855">
  <g id="Group_42177" data-name="Group 42177" transform="translate(323.483 -1597.9)">
    <path id="Path_161" data-name="Path 161" d="M670.708,542.421a1.762,1.762,0,0,0-1.77,1.785A1.787,1.787,0,0,0,670.713,546a1.817,1.817,0,0,0,1.779-1.8,1.784,1.784,0,0,0-1.783-1.781Zm-34.354,14.618c0-1.122.008-2.157-.012-3.192,0-.114-.168-.321-.262-.322-1.094-.023-2.187-.015-3.316-.015v3.519a6.233,6.233,0,0,1,1.732-.522,7.14,7.14,0,0,1,1.858.532Zm21.371,12.987h-3.553v3.682a2.939,2.939,0,0,1,3.553-.066v-3.616Zm3.54-22.034c.267.017.45.041.634.041,1.645,0,3.292.013,4.938-.012.227,0,.6-.138.649-.291.149-.48.685-.885.321-1.489a3.553,3.553,0,0,1,1.619-5.364c.15-.07.364-.226.365-.346.027-1.343.017-2.688.017-4.025a.752.752,0,0,0-.2-.013c-2.658.915-5.317,1.825-7.964,2.769a.78.78,0,0,0-.359.594c-.037,1-.017,2-.017,3v5.135Zm-32.67-3c0,.8.04,1.527-.013,2.247-.043.619.129.81.785.808q14.66-.035,29.32-.015c.125,0,.25-.009.375,0,.32.024.45-.115.443-.437-.013-.646-.031-1.294.007-1.938.03-.509-.125-.689-.659-.677-1.541.031-3.083.017-4.625,0-.682,0-3.766-.009-4.5,0-.27,0-.542,0-.813,0H628.6Zm9.521,8.548v.7c0,1.271,0,2.543-.006,3.814-.007,1.076-.57,1.512-1.522,1.005a4.017,4.017,0,0,0-4.111,0c-.947.51-1.506.077-1.511-1.005,0-1.333,0-2.667,0-4,0-.273.042-.564-.385-.553-1.125.027-2.258-.039-3.371.081a3.314,3.314,0,0,0-2.909,2.411,3.456,3.456,0,0,0,.845,3.7,3.728,3.728,0,0,0,2.826,1.11q3.374-.005,6.75,0c.747,0,3.77.1,4.223.025a3.985,3.985,0,0,1,.623-.025h25.278a12.1,12.1,0,0,1-.026-7.26Zm14.25,16.443H651.5q-11.344,0-22.69,0c-1.417,0-2.834-.023-4.251.01a3.637,3.637,0,0,0-3.554,3.69,3.6,3.6,0,0,0,3.779,3.577q16.94.011,33.879.009a4.261,4.261,0,0,1,.87.051c.475.1,3.429-.032,4.088-.046.834-.016,1.668,0,2.5-.006.594,0,1.189,0,1.874,0a12.1,12.1,0,0,1-.007-7.288h-.675c-2.375,0-4.751.02-7.126-.015-.577-.008-.7.19-.681.717.035,1.228.009,2.458.01,3.687,0,1.37-.44,1.665-1.732,1.158a11.408,11.408,0,0,0-1.343-.506,2.026,2.026,0,0,0-1,0c-.638.188-1.24.489-1.873.7a.846.846,0,0,1-1.188-.8c-.037-.518-.014-1.041-.015-1.562,0-1.1,0-2.2,0-3.38Zm-29.777-5.251c-3.3-2.63-4.718-5.917-3.633-9.946,1.053-3.911,3.816-6.074,7.832-6.749.014-.169.039-.35.039-.531,0-2.5-.009-5,.013-7.5a.747.747,0,0,0-.6-.849c-2.741-.927-5.473-1.882-8.206-2.835-1.067-.373-1.545-.974-1.528-1.877.014-.87.5-1.455,1.535-1.812q6.935-2.4,13.873-4.8a4.127,4.127,0,0,1,.477-.149.817.817,0,0,1,1.057.529.828.828,0,0,1-.509,1.12c-.34.154-.705.255-1.059.377l-13.05,4.51c-.169.058-.332.141-.67.286l8.585,2.974c.049-.213.09-.369.117-.526a2.144,2.144,0,0,1,1.831-1.87,80.579,80.579,0,0,1,19.536-1.243c3.527.225,7.039.713,10.551,1.141,1.743.212,2.193.705,2.564,2.5l8.606-2.976c-.348-.14-.519-.219-.7-.281Q657.4,530.108,645.531,526a4.2,4.2,0,0,0-2.98.01c-1.757.652-3.54,1.234-5.312,1.844-.117.041-.234.088-.355.117a.839.839,0,0,1-1.1-.551.8.8,0,0,1,.54-1.1c2.18-.765,4.361-1.533,6.561-2.24a4.512,4.512,0,0,1,2.888.151q8.353,2.893,16.707,5.779,3.719,1.287,7.438,2.575c1.339.466,1.659.924,1.662,2.353,0,1.75.008,3.5-.006,5.251a.667.667,0,0,0,.478.741,3.554,3.554,0,0,1,1.641,5.226,1.09,1.09,0,0,0-.078.83c.53,1.4,1.117,2.783,1.67,4.177a2.481,2.481,0,0,1-2.429,3.589c-1.313.008-2.625-.014-3.938.009a3,3,0,0,1-2.317-.727c-.085.205-.159.342-.2.488a9.555,9.555,0,0,0,.16,5.776.869.869,0,0,0,.5.514,2.738,2.738,0,0,1,2.346,3.315c-.014.1-.029.195-.049.332.3.034.567.056.829.094a2.715,2.715,0,0,1,2.378,2.574,2.66,2.66,0,0,1-2.181,2.793.821.821,0,0,0-.732.684,10.183,10.183,0,0,0,.021,6.091.805.805,0,0,0,.695.666,2.721,2.721,0,0,1-.475,5.392c-.458.014-.917,0-1.375,0q-21.911,0-43.819,0a8.8,8.8,0,0,1-7.022-3.244,9.1,9.1,0,0,1,4.3-14.581l.618-.191Z" transform="translate(-939 1074)" fill="#710038"/>
  </g>
</svg>
