<svg xmlns="http://www.w3.org/2000/svg" width="60" height="60" viewBox="0 0 60 60">
  <g id="Group_42188" data-name="Group 42188" transform="translate(-2331.495 -2585.379)">
    <path id="Path_136" data-name="Path 136" d="M367.066,452.984a1.877,1.877,0,0,0,.912-1.913,1.75,1.75,0,0,0-.912-1.349v3.262Zm-19.4-3.155a1.414,1.414,0,0,0-.919,1.288,1.666,1.666,0,0,0,.919,1.782v-3.07Zm20.257,4.884c-.382.2-.9.309-1.067.609a8.147,8.147,0,0,0-.547,1.763c1.541.208,1.95-.375,1.614-2.372ZM354.707,462.6l2.663,2.673,2.7-2.7a9.866,9.866,0,0,1-5.362.023Zm-21.867-5.5,4.332,4.363.943-.892-4.384-4.4-.891.926Zm20,19.985,1.11-1.048-4.406-4.447-1.159,1.051,4.456,4.444Zm-3.215-28.666c0,1.736-.066,3.414.014,5.087a7.736,7.736,0,0,0,12.177,6.09c.178-.119.336-.267.5-.4-.021-.041-.042-.084-.064-.125h-4.844v-1.929h.687c1.815,0,3.631-.015,5.446.011a.746.746,0,0,0,.8-.5,8.032,8.032,0,0,0,.766-3.4c0-1.445-.011-2.89.01-4.334.006-.4-.131-.541-.524-.578a11.237,11.237,0,0,1-4.742-1.548c-.866-.519-1.668-1.143-2.547-1.753a12.726,12.726,0,0,1-7.678,3.381Zm.046,20.441c1.148,1.152,2.257,2.248,3.343,3.369a1.227,1.227,0,0,0,.97.4q9.372-.017,18.742-.008h.711c-.483-1.456-.91-2.83-1.4-4.183a4.751,4.751,0,0,0-3.828-3.232c-1.572-.3-3.181-.449-4.71-.885a2.825,2.825,0,0,0-3.368,1.063,36.4,36.4,0,0,1-2.758,2.793c-.18-.17-.324-.3-.461-.436-1.147-1.145-2.283-2.3-3.448-3.425a.94.94,0,0,0-.7-.236c-2.115.357-4.227.729-6.332,1.142a4.75,4.75,0,0,0-3.734,3.187c-.211.566-.375,1.149-.584,1.716a.573.573,0,0,0,.165.716c.544.5,1.054,1.044,1.58,1.568.7.693,1.1.7,1.847.029l3.963-3.583Zm-3.131,13.453a8.868,8.868,0,0,1-5.207-3.219c-.632-.691-1.321-1.329-1.984-1.992q-4.806-4.8-9.609-9.611a6.765,6.765,0,0,1-.023-10.043c1.35-1.355,2.7-2.708,4.014-4.026,2.393,2.392,4.762,4.759,7.206,7.2-.675.658-1.4,1.359-2.117,2.066-.543.535-1.087,1.067-1.613,1.618a.933.933,0,0,0-.1,1.323c1.083,1.114,2.2,2.19,3.356,3.327.149-.424.277-.807.419-1.185a6.638,6.638,0,0,1,5.281-4.452c1.954-.37,3.913-.712,5.87-1.069.151-.027.3-.073.638-.157a2.981,2.981,0,0,0-.515-.66,9.882,9.882,0,0,1-4.215-5.914.783.783,0,0,0-.411-.465,3.89,3.89,0,0,1-2.746-3.924c0-2.167-.009-4.335,0-6.5a12.562,12.562,0,0,1,25.066-1.289c.181,2.448.086,4.917.1,7.375.012,1.718,0,3.437,0,5.155a2.9,2.9,0,0,1-3.194,3.2,2.769,2.769,0,0,0-2.661,1.091,9.145,9.145,0,0,1-1.572,1.3,3.676,3.676,0,0,0-.465.651l3.357.627c1.207.226,2.428.4,3.62.688a6.382,6.382,0,0,1,4.723,4.145c.829,2.228,1.528,4.5,2.283,6.759a.962.962,0,0,1,0,.231H355.532l-.064.119,1.509,1.266c-2.018,1.809-3.856,3.5-5.743,5.131a6.881,6.881,0,0,1-3.055,1.236Z" transform="translate(2004 2163.066)" fill="#710038"/>
    <path id="Path_137" data-name="Path 137" d="M372.229,441.74c.339-1.994.656-3.854.989-5.8h-2.125c-2.217,0-3.367-1.143-3.368-3.343q0-3.515,0-7.029a2.936,2.936,0,0,1,3.167-3.182q6.531,0,13.061,0a2.888,2.888,0,0,1,3.124,3.092q.017,3.691,0,7.38A2.805,2.805,0,0,1,384,435.9a7,7,0,0,0-4.618,1.358c-2.139,1.466-4.384,2.775-6.584,4.149-.146.092-.3.175-.565.33Z" transform="translate(2004.407 2163)" fill="#710038"/>
    <path id="Path_138" data-name="Path 138" d="M333.028,446.288c.894-.535,1.709-1.02,2.555-1.524l.991,1.65-5.664,3.4-3.4-5.656,1.645-1,1.816,3a27.077,27.077,0,0,1,34.4-19.637q-.269.876-.54,1.754c-15.063-4.762-29.181,5.734-31.807,18.017Z" transform="translate(2004 2163.02)" fill="#710038"/>
    <path id="Path_139" data-name="Path 139" d="M380.872,444.086c-.624,1.031-1.156,1.911-1.722,2.848l-1.658-.984,3.4-5.666,5.658,3.394-.984,1.661-2.783-1.659a27.427,27.427,0,0,1-4.65,25.633c-.149-.1-.231-.149-.3-.207-.395-.317-.787-.637-1.214-.984,5.464-7.243,6.92-15.187,4.258-24.037Z" transform="translate(2004.469 2163.123)" fill="#710038"/>
  </g>
</svg>
