<svg xmlns="http://www.w3.org/2000/svg" width="61" height="61" viewBox="0 0 61 61">
  <g id="Group_42189" data-name="Group 42189" transform="translate(135.687 -1595.763)">
    <path id="Exclusion_2" data-name="Exclusion 2" d="M59.169,60H0V19.57A1.536,1.536,0,0,1,1.5,18.736l.1,0c.513.016,1.069.023,1.75.023.4,0,.807,0,1.2,0h.011c.392,0,.8,0,1.2,0h.575v-.794q0-8.173,0-16.347C6.328.361,6.686,0,7.923,0H52.088c1.206,0,1.574.368,1.574,1.573V18.751h4.756c1.2,0,1.571.369,1.571,1.575q0,4.37,0,8.741v.219c0,9.544,0,19.414.012,29.121A1.587,1.587,0,0,1,59.169,60h0ZM19.956,32.845V57.633h8.819V32.845ZM31.2,32.86V57.63H40.03V32.86H31.2ZM2.371,54.416h0v3.209H17.537V54.416Zm40.07-.01v3.209H57.6V54.406ZM53.534,42.258a1.532,1.532,0,0,0-1.055.509c-1.547,1.541-3.062,3.059-4.468,4.47-.024.024-.051.05-.078.075-.112.105-.228.214-.241.332-.006.054-.013.109-.02.164a1.827,1.827,0,0,0,.044.987,1.511,1.511,0,0,0,.6.511c.116.07.235.143.347.224.133-.084.259-.155.381-.223a2.914,2.914,0,0,0,.619-.417c1.489-1.461,2.966-2.945,4.474-4.463a1.523,1.523,0,0,0,.507-1.075,1.154,1.154,0,0,0-1.111-1.094Zm-40.164-.1c-.1.064-.208.123-.311.181a2.95,2.95,0,0,0-.63.426c-1.085,1.058-2.17,2.148-3.219,3.2l-.02.021-.657.66-.193.191a7.779,7.779,0,0,0-.654.7A1.129,1.129,0,0,0,7.7,48.942a1.085,1.085,0,0,0,.867.443,1.345,1.345,0,0,0,.447-.082,1.773,1.773,0,0,0,.609-.438c1.5-1.485,3.013-3.005,4.429-4.427a2.231,2.231,0,0,0,.369-.451,1.144,1.144,0,0,0,.029-1.092,1.392,1.392,0,0,0-1.082-.74Zm37.25-5.782a1.425,1.425,0,0,0-.981.449c-.974.961-1.956,1.947-2.9,2.9l-.7.7-.282.28c-.29.286-.59.582-.864.891a.984.984,0,0,0-.141,1.246,2.473,2.473,0,0,0,.613.56c.105.077.214.157.317.243.135-.07.264-.127.378-.177a1.811,1.811,0,0,0,.543-.312c1.657-1.627,3.273-3.242,4.8-4.8a1.121,1.121,0,0,0,.112-1.5A1.089,1.089,0,0,0,50.621,36.373Zm-40.069,0a1.423,1.423,0,0,0-.981.449c-.9.887-1.806,1.8-2.683,2.676l-.014.014-.991.993-.259.257c-.27.267-.55.542-.8.831a.993.993,0,0,0-.142,1.247,2.5,2.5,0,0,0,.613.559c.1.074.206.15.3.231.134-.064.261-.115.374-.16a1.518,1.518,0,0,0,.517-.279c1.784-1.753,3.382-3.351,4.884-4.885a1.1,1.1,0,0,0,.078-1.454A1.09,1.09,0,0,0,10.552,36.373ZM2.377,21.093v9.338H57.6V21.093H35.465a2.663,2.663,0,0,1-.332-.017,1.165,1.165,0,0,1,0-2.315,2.357,2.357,0,0,1,.3-.016H51.277V2.39H8.7v16.36h15.54l.152,0,.152,0a2.479,2.479,0,0,1,.28.013,1.166,1.166,0,0,1,0,2.323,2.488,2.488,0,0,1-.281.013l-.153,0-.153,0H2.377Zm27.616,0a1.176,1.176,0,0,1-1.166-1.184,1.193,1.193,0,0,1,1.157-1.151h.009a1.173,1.173,0,0,1,.829.354,1.153,1.153,0,0,1,.338.833A1.178,1.178,0,0,1,30,21.091ZM17.647,16.417A5.864,5.864,0,0,1,14.168,5.9a5.934,5.934,0,0,1,3.58-1.207,5.754,5.754,0,0,1,3.015.844,1.238,1.238,0,0,1,.725,1.287,1.015,1.015,0,0,1-.89.952,1.256,1.256,0,0,1-.136.007,1.972,1.972,0,0,1-.9-.245A3.879,3.879,0,0,0,17.7,7.042a3.483,3.483,0,0,0-3.477,3.137,3.365,3.365,0,0,0,.838,2.65,3.5,3.5,0,0,0,2.615,1.232,3.124,3.124,0,0,0,.761-.094,2.731,2.731,0,0,0,2.005-2.251H20.3l-.336,0-.416,0c-.206,0-.375,0-.531-.008A1.167,1.167,0,1,1,19,9.379c.419-.009.86-.013,1.311-.013s.893,0,1.383.012a1.192,1.192,0,0,1,1.253,1.306,5.959,5.959,0,0,1-1.233,3.8,5.139,5.139,0,0,1-3.294,1.876A5.016,5.016,0,0,1,17.647,16.417Zm24.389,0a1.287,1.287,0,0,1-.9-.373,1.994,1.994,0,0,1-.478-.847q-.173-.559-.344-1.12c-.363-1.191-.738-2.42-1.171-3.628-.072.4-.143.8-.213,1.191-.2,1.126-.406,2.289-.638,3.427a2.076,2.076,0,0,1-.507,1,.875.875,0,0,1-.641.271,1.292,1.292,0,0,1-.612-.171,1.075,1.075,0,0,1-.575-1.181c.172-1.042.361-2.1.544-3.119l.1-.569c.217-1.211.439-2.437.654-3.622l.23-1.271c.025-.137.055-.3.09-.46a1.392,1.392,0,0,1,1.325-1.254h.061a1.393,1.393,0,0,1,1.359,1.151c.277.92.553,1.856.819,2.761l0,.008q.228.774.457,1.548c.075.255.152.507.24.8.054.178.112.366.175.576l.2-.68c.143-.482.278-.938.406-1.386q.216-.751.428-1.5c.195-.688.4-1.4.6-2.095a1.417,1.417,0,0,1,1.359-1.18q.048,0,.1,0a1.4,1.4,0,0,1,1.3,1.283c.564,2.909,1.136,5.885,1.7,8.846a1.333,1.333,0,0,1-.182,1.014,1.1,1.1,0,0,1-.715.458,1.435,1.435,0,0,1-.253.023,1.149,1.149,0,0,1-1.145-1.025c-.189-.95-.373-1.918-.551-2.854l0-.01q-.137-.723-.276-1.445c-.023-.123-.054-.247-.092-.4-.02-.083-.043-.176-.069-.284-.153.533-.3,1.055-.445,1.56-.34,1.195-.66,2.322-1,3.455A1.455,1.455,0,0,1,42.036,16.414ZM29.444,16.4a1.2,1.2,0,0,1-1.178-1.325c-.006-.561-.005-1.131,0-1.683,0-.715,0-1.453-.012-2.179a1.629,1.629,0,0,0-.243-.806c-.5-.795-1.023-1.593-1.528-2.366-.292-.446-.593-.908-.887-1.363a1.2,1.2,0,0,1,.229-1.8,1.154,1.154,0,0,1,.629-.2,1.365,1.365,0,0,1,1.1.72c.423.638.835,1.27,1.272,1.94l.006.009.614.94.671-1.026.009-.014c.439-.672.854-1.307,1.277-1.949a1.149,1.149,0,0,1,.976-.589,1.277,1.277,0,0,1,.272.031,1.037,1.037,0,0,1,.907,1.006,1.847,1.847,0,0,1-.3.972c-.364.584-.748,1.17-1.119,1.736-.4.6-.8,1.228-1.191,1.852a2.288,2.288,0,0,0-.325,1.075c-.025.784-.022,1.583-.019,2.355,0,.437,0,.887,0,1.329A1.181,1.181,0,0,1,29.444,16.4Z" transform="translate(-135.187 1596.264)" fill="#710038" stroke="rgba(0,0,0,0)" stroke-miterlimit="10" stroke-width="1"/>
  </g>
</svg>
