<svg xmlns="http://www.w3.org/2000/svg" width="60" height="47.937" viewBox="0 0 60 47.937">
  <g id="Group_42178" data-name="Group 42178" transform="translate(232.62 -1599.525)">
    <path id="Path_158" data-name="Path 158" d="M727.418,537.477h33.9v1.961H760.7c-1.953,0-3.906,0-5.859,0a2.879,2.879,0,0,0-.752.083,1.126,1.126,0,0,0-.158.057.881.881,0,0,0-.527.912.906.906,0,0,0,.527.828,1.164,1.164,0,0,0,.3.087,4.254,4.254,0,0,0,.642.029q2.9,0,5.8,0h.663v1.958H727.4v-1.958h.692q6.386,0,12.773,0a3.593,3.593,0,0,0,.7-.037.9.9,0,0,0,.784-.89.886.886,0,0,0-.664-.98,2.848,2.848,0,0,0-.809-.089q-6.357-.008-12.714,0h-.748v-1.961Zm-1.587,7.967h37.081c1.159,0,1.471.31,1.471,1.448q0,10.6,0,21.2a3.031,3.031,0,0,1-3.341,3.339l-7.114,0H736.3c.042-.751.081-1.428.111-1.972,1.856-.606,3.667-1.186,5.468-1.791,1.57-.528,1.582-.568,1.3-2.213h2.424c-.276,1.671-.284,1.689,1.352,2.233a37.778,37.778,0,0,0,4.793,1.481,6.245,6.245,0,0,0,2.187.02,6.777,6.777,0,0,0,5.138-4.06c.831-2.058,1.506-4.181,2.225-6.283a1,1,0,0,0-.7-1.387c-.9-.331-1.8-.655-2.707-.934a.639.639,0,0,1-.519-.751c.022-1.679.012-3.358.008-5.037,0-.945-.325-1.285-1.254-1.288l-2.188-.009c-1.243,0-2.486,0-3.729.03a6.761,6.761,0,0,0-5.585,3.04c-.064.09-.137.174-.158.2a26.606,26.606,0,0,0-2.079-1.974,6.611,6.611,0,0,0-4.171-1.292c-1.836,0-3.671,0-5.506,0-.987,0-1.322.349-1.326,1.353-.006,1.64-.018,3.281.009,4.92.007.456-.095.7-.573.828-.824.23-1.622.556-2.435.827a1.248,1.248,0,0,0-.993,1.054,3.034,3.034,0,0,0-2.963-.873c-.013-.255-.03-.446-.03-.637q0-5.008,0-10.016c0-1.176.285-1.466,1.443-1.467Zm14.263,20.328c.086.074.167.151.387.351-1.385.4-2.634.771-3.893,1.1a.639.639,0,0,1-.558-.207,3.159,3.159,0,0,0-3-1.581c-.23.006-.46,0-.719,0a9.175,9.175,0,0,0-1.873-4.334,8.657,8.657,0,0,1-.817-2.082,44.126,44.126,0,0,1,4.359-1.32,4.766,4.766,0,0,1,5.211,2.81,15,15,0,0,1,.888,2.678c-.138-.083-.282-.156-.412-.249a16.957,16.957,0,0,0-4.745-2.36c-.77-.247-1.286-.066-1.5.544-.2.582.063,1.063.8,1.322a18.032,18.032,0,0,1,5.87,3.324ZM722.385,546.76q-.011,5.273,0,10.547v.7c-.267.066-.474.118-.682.166-2.034.464-4.072.913-6.1,1.4a6.568,6.568,0,0,0-3.9,2.605,7.167,7.167,0,0,0-1.246,3.267c-.326,0-.617,0-.906,0a2.926,2.926,0,0,0-2.462,1.124,9.42,9.42,0,0,0-.7,1.327v3.164c.642,1.88,2.014,2.412,3.909,2.408q21.819-.053,43.637-.028l6.868,0a7.184,7.184,0,0,0,1.8-.167,4.964,4.964,0,0,0,3.784-5.124q.006-10.692,0-21.385a5.674,5.674,0,0,0-.021-.585,2.924,2.924,0,0,0-2.426-2.644c-.456-.063-.574-.219-.568-.657q.033-2.637,0-5.272a2.007,2.007,0,0,0-2.161-2.157c-.289-.005-.576,0-.881,0a8.5,8.5,0,0,0-2.575-5.378c-1.207-1.094-2.53-2.06-3.823-3.06q-.354-.274-.7-.552a4.133,4.133,0,0,0-3.627-.807c-3.78.79-7.568,1.538-11.355,2.293a10.941,10.941,0,0,0-3.848,1.321A8.231,8.231,0,0,0,730.533,535c-.059.338-.179.465-.524.45-.566-.025-1.135.027-1.7-.013-2.189-.157-3.057.792-2.955,2.93.081,1.671.017,3.35.017,5.049-.29.056-.539.088-.78.152a3.035,3.035,0,0,0-2.208,3.2Zm26.085,16.354a23.614,23.614,0,0,1,1.7-3.535,4.336,4.336,0,0,1,3.761-1.969,5.4,5.4,0,0,1,1.021.119,44.068,44.068,0,0,1,4.218,1.314c-.747,1.985-1.333,3.956-2.219,5.781a4.422,4.422,0,0,1-3.02,2.314,4.981,4.981,0,0,1-2.379-.024c-1.062-.279-2.095-.665-3.141-1-.021-.066-.041-.13-.062-.2,1.06-.711,2.081-1.489,3.189-2.115a21.408,21.408,0,0,1,2.394-1.1c.232-.1.462-.191.691-.289a1.049,1.049,0,0,0,.74-.888.969.969,0,0,0-1.386-.978l-.044.019c-1.483.633-2.929,1.357-4.38,2.065a6.881,6.881,0,0,0-.863.592l-.214-.111Zm-19.6-.67a4.987,4.987,0,0,1,1.407,2.946H712.541a4.332,4.332,0,0,1,3.234-3.8c3.043-.751,6.109-1.419,9.172-2.091a1.071,1.071,0,0,1,.8.208c1.063.886,2.122,1.78,3.119,2.739Z" transform="translate(-939 1074)" fill="#710038" fill-rule="evenodd"/>
    <path id="Path_159" data-name="Path 159" d="M749.953,539.323q-2.425-.036-4.851,0a.994.994,0,1,0,.051,1.981c.8.017,1.6.005,2.4.005.779,0,1.559.011,2.337,0,.708-.013,1.14-.4,1.142-.984a1.012,1.012,0,0,0-1.076-1Z" transform="translate(-938.658 1074.125)" fill="#710038" fill-rule="evenodd"/>
  </g>
</svg>
