<svg xmlns="http://www.w3.org/2000/svg" width="60" height="41.233" viewBox="0 0 60 41.233">
  <g id="Group_42173" data-name="Group 42173" transform="translate(706.262 -1602.825)">
    <path id="Path_247" data-name="Path 247" d="M232.738,554.426h57.5v-9h-57.5v9Z" transform="translate(-939 1074.133)" fill="#710038"/>
    <path id="Path_248" data-name="Path 248" d="M233.859,540.631a1.677,1.677,0,0,0-.625.123v3.086a1.666,1.666,0,1,0,.625-3.21Z" transform="translate(-938.996 1074.094)" fill="#fff"/>
    <path id="Path_249" data-name="Path 249" d="M242.974,542.3a1.667,1.667,0,1,1-1.666-1.666,1.666,1.666,0,0,1,1.666,1.666Z" transform="translate(-938.945 1074.094)" fill="#fff"/>
    <path id="Path_250" data-name="Path 250" d="M250.414,542.3a1.666,1.666,0,1,1-1.666-1.666,1.666,1.666,0,0,1,1.666,1.666Z" transform="translate(-938.885 1074.094)" fill="#fff"/>
    <path id="Path_251" data-name="Path 251" d="M257.855,542.3a1.667,1.667,0,1,1-1.666-1.666,1.666,1.666,0,0,1,1.666,1.666Z" transform="translate(-938.826 1074.094)" fill="#fff"/>
    <path id="Path_252" data-name="Path 252" d="M265.3,542.3a1.667,1.667,0,1,1-1.667-1.666A1.666,1.666,0,0,1,265.3,542.3Z" transform="translate(-938.767 1074.094)" fill="#fff"/>
    <path id="Path_253" data-name="Path 253" d="M272.736,542.3a1.666,1.666,0,1,1-1.666-1.666,1.666,1.666,0,0,1,1.666,1.666Z" transform="translate(-938.707 1074.094)" fill="#fff"/>
    <path id="Path_254" data-name="Path 254" d="M280.177,542.3a1.667,1.667,0,1,1-1.667-1.666,1.666,1.666,0,0,1,1.667,1.666Z" transform="translate(-938.648 1074.094)" fill="#fff"/>
    <path id="Path_255" data-name="Path 255" d="M287.617,542.3a1.666,1.666,0,1,1-1.666-1.666,1.666,1.666,0,0,1,1.666,1.666Z" transform="translate(-938.588 1074.094)" fill="#fff"/>
    <path id="Path_256" data-name="Path 256" d="M292.267,541.071a1.649,1.649,0,0,0,0,2.445v-2.445Z" transform="translate(-938.529 1074.098)" fill="#fff"/>
    <path id="Path_257" data-name="Path 257" d="M239.006,546.762a1.667,1.667,0,1,1-1.667-1.667,1.667,1.667,0,0,1,1.667,1.667Z" transform="translate(-938.977 1074.13)" fill="#fff"/>
    <path id="Path_258" data-name="Path 258" d="M246.446,546.762a1.666,1.666,0,1,1-1.666-1.667,1.666,1.666,0,0,1,1.666,1.667Z" transform="translate(-938.917 1074.13)" fill="#fff"/>
    <path id="Path_259" data-name="Path 259" d="M253.887,546.762a1.667,1.667,0,1,1-1.667-1.667,1.666,1.666,0,0,1,1.667,1.667Z" transform="translate(-938.858 1074.13)" fill="#fff"/>
    <path id="Path_260" data-name="Path 260" d="M261.327,546.762a1.666,1.666,0,1,1-1.666-1.667,1.666,1.666,0,0,1,1.666,1.667Z" transform="translate(-938.798 1074.13)" fill="#fff"/>
    <path id="Path_261" data-name="Path 261" d="M268.768,546.762a1.667,1.667,0,1,1-1.667-1.667,1.666,1.666,0,0,1,1.667,1.667Z" transform="translate(-938.739 1074.13)" fill="#fff"/>
    <path id="Path_262" data-name="Path 262" d="M276.208,546.762a1.666,1.666,0,1,1-1.666-1.667,1.666,1.666,0,0,1,1.666,1.667Z" transform="translate(-938.68 1074.13)" fill="#fff"/>
    <path id="Path_263" data-name="Path 263" d="M283.649,546.762a1.667,1.667,0,1,1-1.666-1.667,1.666,1.666,0,0,1,1.666,1.667Z" transform="translate(-938.62 1074.13)" fill="#fff"/>
    <path id="Path_264" data-name="Path 264" d="M291.09,546.762a1.667,1.667,0,1,1-1.667-1.667,1.667,1.667,0,0,1,1.667,1.667Z" transform="translate(-938.561 1074.13)" fill="#fff"/>
    <path id="Path_265" data-name="Path 265" d="M233.363,550.056a1.668,1.668,0,0,0-.624.123v3.086a1.665,1.665,0,1,0,.624-3.209Z" transform="translate(-939 1074.169)" fill="#fff"/>
    <path id="Path_266" data-name="Path 266" d="M242.974,551.722a1.667,1.667,0,1,1-1.666-1.666,1.666,1.666,0,0,1,1.666,1.666Z" transform="translate(-938.945 1074.169)" fill="#fff"/>
    <path id="Path_267" data-name="Path 267" d="M250.414,551.722a1.666,1.666,0,1,1-1.666-1.666,1.666,1.666,0,0,1,1.666,1.666Z" transform="translate(-938.885 1074.169)" fill="#fff"/>
    <path id="Path_268" data-name="Path 268" d="M257.855,551.722a1.667,1.667,0,1,1-1.666-1.666,1.666,1.666,0,0,1,1.666,1.666Z" transform="translate(-938.826 1074.169)" fill="#fff"/>
    <path id="Path_269" data-name="Path 269" d="M265.3,551.722a1.667,1.667,0,1,1-1.667-1.666,1.666,1.666,0,0,1,1.667,1.666Z" transform="translate(-938.767 1074.169)" fill="#fff"/>
    <path id="Path_270" data-name="Path 270" d="M272.736,551.722a1.666,1.666,0,1,1-1.666-1.666,1.666,1.666,0,0,1,1.666,1.666Z" transform="translate(-938.707 1074.169)" fill="#fff"/>
    <path id="Path_271" data-name="Path 271" d="M280.177,551.722a1.667,1.667,0,1,1-1.667-1.666,1.666,1.666,0,0,1,1.667,1.666Z" transform="translate(-938.648 1074.169)" fill="#fff"/>
    <path id="Path_272" data-name="Path 272" d="M287.617,551.722a1.666,1.666,0,1,1-1.666-1.666,1.666,1.666,0,0,1,1.666,1.666Z" transform="translate(-938.588 1074.169)" fill="#fff"/>
    <path id="Path_273" data-name="Path 273" d="M292.267,550.5a1.65,1.65,0,0,0,0,2.445V550.5Z" transform="translate(-938.529 1074.173)" fill="#fff"/>
    <path id="Path_274" data-name="Path 274" d="M238.972,555.853a1.667,1.667,0,0,0-3.266,0Z" transform="translate(-938.976 1074.205)" fill="#fff"/>
    <path id="Path_275" data-name="Path 275" d="M246.413,555.853a1.667,1.667,0,0,0-3.266,0Z" transform="translate(-938.917 1074.205)" fill="#fff"/>
    <path id="Path_276" data-name="Path 276" d="M253.853,555.853a1.667,1.667,0,0,0-3.266,0Z" transform="translate(-938.857 1074.205)" fill="#fff"/>
    <path id="Path_277" data-name="Path 277" d="M261.294,555.853a1.667,1.667,0,0,0-3.266,0Z" transform="translate(-938.798 1074.205)" fill="#fff"/>
    <path id="Path_278" data-name="Path 278" d="M268.734,555.853a1.667,1.667,0,0,0-3.266,0Z" transform="translate(-938.739 1074.205)" fill="#fff"/>
    <path id="Path_279" data-name="Path 279" d="M276.175,555.853a1.667,1.667,0,0,0-3.266,0Z" transform="translate(-938.679 1074.205)" fill="#fff"/>
    <path id="Path_280" data-name="Path 280" d="M283.616,555.853a1.667,1.667,0,0,0-3.266,0Z" transform="translate(-938.62 1074.205)" fill="#fff"/>
    <path id="Path_281" data-name="Path 281" d="M291.056,555.853a1.667,1.667,0,0,0-3.266,0Z" transform="translate(-938.56 1074.205)" fill="#fff"/>
    <path id="Path_282" data-name="Path 282" d="M235.219,568.839h52.5v-12.5h-52.5v12.5Z" transform="translate(-938.98 1074.22)" fill="#710038"/>
    <path id="Path_283" data-name="Path 283" d="M245.635,570.009h10.5V540.866l-4.109,1.518-1.266-4.594-2.58-2.78,1.266,6.188-3.811,1.187v27.625Z" transform="translate(-938.897 1074.049)" fill="#710038"/>
    <path id="Path_284" data-name="Path 284" d="M239.095,536.479a3.3,3.3,0,0,1,.083-3.557,2.15,2.15,0,0,1,1.956-1.1c2.367,0,6.264,2.874,7.79,9.01-4.145.152-8.357-1.719-9.829-4.356Zm21.2-4.654a2.151,2.151,0,0,1,1.957,1.1,3.3,3.3,0,0,1,.083,3.557c-1.472,2.638-5.689,4.51-9.83,4.356,1.527-6.137,5.424-9.01,7.79-9.01Zm21.312,4.426c-4.238-1.154-8.569,1.392-11.73,3.251a21.58,21.58,0,0,1-2.692,1.44,25.109,25.109,0,0,1-8.1,1.731,11.523,11.523,0,0,0,5.87-4.733,6.275,6.275,0,0,0-.15-6.6,5.136,5.136,0,0,0-4.51-2.52c-4.11,0-7.6,3.632-9.581,8.122-1.979-4.491-5.471-8.122-9.582-8.122a5.135,5.135,0,0,0-4.509,2.52,6.277,6.277,0,0,0-.151,6.6c1.939,3.477,6.85,5.9,11.943,5.9a15.463,15.463,0,0,0,1.938-.133,16.254,16.254,0,0,0,8.207,1.961,27.415,27.415,0,0,0,9.684-1.924,22.683,22.683,0,0,0,3.153-1.66c2.852-1.677,6.4-3.763,9.424-2.942a1.5,1.5,0,0,0,.786-2.9Z" transform="translate(-938.977 1074)" fill="#710038"/>
  </g>
</svg>
