<svg xmlns="http://www.w3.org/2000/svg" width="52.994" height="60" viewBox="0 0 52.994 60">
  <g id="Group_42183" data-name="Group 42183" transform="translate(414.502 -1501.073)">
    <path id="Path_126" data-name="Path 126" d="M548.866,487.073a41.221,41.221,0,0,1-4.4-.906c-2.822-.894-5.6-1.936-8.386-2.933a30.616,30.616,0,0,0-7.453-1.937c-1.006-.093-2.026-.061-3.039-.057-.8,0-1.172-.36-1.076-1.147a119.76,119.76,0,0,1,5.292-23.887c.505-1.492,1.2-2.917,1.786-4.383a1.42,1.42,0,0,0,.07-.772c-.719-3.515-1.464-7.024-2.182-10.538a11.993,11.993,0,0,1-.184-1.745.859.859,0,0,1,.784-.981.882.882,0,0,1,.953.834,116.185,116.185,0,0,0,2.22,11.419c.087.435.251.561.686.559q7.82-.022,15.64,0c.365,0,.551-.068.633-.477.685-3.4,1.432-6.791,2.083-10.2a17.736,17.736,0,0,0,.2-3.151c.027-2.615.01-5.23.01-7.892h-1.628c0,.889.061,1.784-.011,2.668a9.173,9.173,0,0,1-18.259.256c-.084-.754-.037-1.521-.049-2.283,0-.209,0-.418,0-.657h-1.6c0,1.543,0,3.061,0,4.578,0,.546,0,1.094-.012,1.64a.847.847,0,0,1-.845.924.858.858,0,0,1-.9-.933c-.008-1.035.013-2.07.031-3.1.018-.957.087-1.915.061-2.87a1.955,1.955,0,0,1,1.061-2.022h2.929a1.936,1.936,0,0,1,1.048,2.023,14.825,14.825,0,0,0,.057,2.687,7.4,7.4,0,0,0,14.6.408,16.281,16.281,0,0,0,.18-3.259,1.775,1.775,0,0,1,1.106-1.859h2.812a1.822,1.822,0,0,1,1.09,1.875c0,2.83.067,5.662.074,8.493a41.151,41.151,0,0,1-1.334,8.54c-.344,1.641-.73,3.274-1.077,4.915a1.1,1.1,0,0,0,.057.669,61.376,61.376,0,0,1,3.882,11.2c.312,1.147.585,2.306.867,3.461.159.653-.078,1.118-.615,1.247-.494.118-.925-.194-1.076-.814a93.187,93.187,0,0,0-3.4-11.488c-.322-.837-.7-1.653-1.071-2.467a.618.618,0,0,0-.4-.336c-1.168-.027-2.335-.016-3.584-.016.146.955.29,1.849.416,2.747.184,1.314.363,2.628.528,3.944.084.669-.215,1.115-.752,1.183s-.9-.312-1-.98c-.3-2.143-.626-4.285-.919-6.43-.051-.378-.211-.477-.569-.473q-2.314.023-4.629,0c-.372,0-.509.127-.559.488-.3,2.144-.615,4.286-.922,6.43-.1.665-.478,1.04-1.006.965s-.832-.527-.739-1.192c.287-2.049.588-4.094.881-6.141.022-.152.028-.306.048-.539-1.272,0-2.515-.017-3.758.02-.157,0-.376.26-.448.447-.8,2.069-1.685,4.116-2.351,6.231a118.422,118.422,0,0,0-4.323,20.107,1.136,1.136,0,0,0,0,.182c1.323.139,2.628.214,3.912.424a42.4,42.4,0,0,1,8.094,2.473,55.683,55.683,0,0,0,8.162,2.67,13.942,13.942,0,0,0,10.152-1.284c.643-.366,1-.725.837-1.536-.185-.932-.226-1.893-.338-2.914H546c-1.679,0-2.256-.6-2.072-2.251.481-4.318,2.986-7.03,6.914-8.567a18.929,18.929,0,0,1,2.24-.667,1.56,1.56,0,0,1,1.934.908,8.317,8.317,0,0,0,.692,1.15,1.975,1.975,0,0,0,2.88.577,10.884,10.884,0,0,0,2.273-2.073,26.683,26.683,0,0,0,3.486-5.938,20.038,20.038,0,0,1,2.78-4.727,6.442,6.442,0,0,1,4.647-2.4,3.4,3.4,0,0,1,3.1,1.532,10.46,10.46,0,0,1,1.752,5.441,9.375,9.375,0,0,1-1.028,5.326c-.163.312-.29.641-.451.951a7.984,7.984,0,0,0-.9,4.005c.055,1.6.017,3.2.011,4.8,0,1.312-.587,1.9-1.886,1.923-.332.006-.665.011-1,0a1.626,1.626,0,0,1-1.753-1.817c-.011-2.285,0-4.569-.018-6.854-.007-.794-.08-1.586-.131-2.539-.438.245-.771.391-1.06.6a19.939,19.939,0,0,0-6.932,8.73c-.659,1.58-.736,1.689-2.474,1.945.111,1.134.172,2.282.353,3.409a1.712,1.712,0,0,1-.843,1.915,14.346,14.346,0,0,1-6.516,2.416,3.684,3.684,0,0,0-.447.105Z" transform="translate(-939 1074)" fill="#710038"/>
    <path id="Path_127" data-name="Path 127" d="M565.521,439.471h4.7c-.661-1.551-1.289-3.037-1.933-4.516a.476.476,0,0,0-.323-.258c-1.026-.02-2.051-.012-3.139-.012.239,1.653.465,3.223.691,4.786Zm-4.266,10.11c.105-.325.161-.49.213-.657.348-1.138.692-2.276,1.041-3.412a.848.848,0,0,1,.959-.678.81.81,0,0,1,.757.772,1.935,1.935,0,0,1-.123.682c-.247.853-.508,1.7-.764,2.553l.092.049,6.743-7.572H565.62c-.127.394-.234.788-.379,1.167a.867.867,0,0,1-1.667-.473c.039-.226.108-.447.17-.7h-4.989c.825,2.724,1.635,5.4,2.5,8.265Zm-8.94-10.071H557c.23-1.575.459-3.148.7-4.818-1.095,0-2.158-.023-3.217.026-.143.006-.29.363-.4.576-.316.608-.938.806-1.389.391a1.054,1.054,0,0,1-.317-.6,2.135,2.135,0,0,1,1.887-2.155q7-.022,14,0a1.544,1.544,0,0,1,1.513,1q1.316,3.062,2.6,6.136a1.685,1.685,0,0,1-.4,1.885q-3.923,4.387-7.832,8.786c-.532.6-1.057,1.2-1.6,1.79a1.612,1.612,0,0,1-2.554-.006q-4.765-5.323-9.507-10.667a1.626,1.626,0,0,1-.311-1.845c.268-.628.52-1.261.8-1.884a.884.884,0,0,1,1.18-.569.907.907,0,0,1,.424,1.28c-.081.213-.163.427-.256.674Z" transform="translate(-934.02 1075.142)" fill="#710038"/>
  </g>
</svg>
