<svg xmlns="http://www.w3.org/2000/svg" width="60" height="53.711" viewBox="0 0 60 53.711">
  <g id="Group_42191" data-name="Group 42191" transform="translate(611.052 -1597.071)">
    <path id="Path_191" data-name="Path 191" d="M375.378,525.416c.61,2.282,1.189,4.481,1.8,6.672.038.136.339.28.52.282,1.7.021,3.392.012,5.088.013h.9c.013-.115.032-.159.019-.191-.861-2.17-1.721-4.342-2.6-6.506a.512.512,0,0,0-.377-.259c-1.752-.016-3.506-.011-5.356-.011Zm-27.647,6.935c.307-2.314.611-4.589.922-6.932-1.863,0-3.675-.007-5.487.017-.113,0-.28.233-.324.386-.263.918-.5,1.845-.742,2.768-.329,1.238-.661,2.476-1,3.761Zm18.069,0c-.315-2.344-.621-4.63-.924-6.894h-5.723v6.894Zm-15.7-.011Zm-18.492,2.409a1.2,1.2,0,0,0-.054.226c0,1.62-.029,3.24,0,4.859a3.414,3.414,0,1,0,6.828-.054c.011-1.522,0-3.045,0-4.566,0-.149-.026-.3-.041-.465Zm18.331,0c0,1.772-.041,3.487.011,5.2a3.346,3.346,0,0,0,3.516,3.307,3.4,3.4,0,0,0,3.309-3.474c.012-1.523,0-3.046,0-4.568,0-.148-.024-.3-.038-.464Zm18.38,0c0,1.745-.04,3.44.011,5.132a3.367,3.367,0,0,0,3.52,3.374,3.418,3.418,0,0,0,3.319-3.529c.01-1.5,0-3.008,0-4.511,0-.149-.026-.3-.041-.466Zm-14.45,33.494h28.2V545.521a5.887,5.887,0,0,1-5.713-2.138,5.884,5.884,0,0,1-9.213.012,5.877,5.877,0,0,1-9.188.023,5.887,5.887,0,0,1-9.21-.045,5.785,5.785,0,0,1-4.566,2.234,5.849,5.849,0,0,1-4.625-2.242,5.89,5.89,0,0,1-5.715,2.162v22.729h3.239V550.489c0-1.253.355-1.612,1.594-1.612H352.26c1.25,0,1.607.354,1.607,1.6q0,8.525,0,17.05v.722Zm-25.918,7.692v-6.8a1.4,1.4,0,0,1,1.508-.858c.653.038,1.311.008,1.964.008.015-.195.03-.291.03-.387q0-11.543-.011-23.083a.98.98,0,0,0-.293-.636,5.806,5.806,0,0,1-1.95-4.472c.011-1.953-.005-3.906.01-5.859a2.763,2.763,0,0,1,.171-.967q1.749-4.435,3.531-8.855a1.243,1.243,0,0,1,1.419-.958q23.611,0,47.221,0a1.267,1.267,0,0,1,1.452,1q1.762,4.4,3.513,8.8a2.264,2.264,0,0,1,.173.791c.011,2.13.023,4.258-.005,6.386a5.4,5.4,0,0,1-1.851,4.031,1.1,1.1,0,0,0-.4.9q.015,11.337.009,22.673c0,.19.015.38.027.638h1.776c1.383,0,1.7.314,1.7,1.673q0,2.578,0,5.156c0,1.323-.331,1.652-1.666,1.652H363.726a5.84,5.84,0,0,1-.586-.012,1.155,1.155,0,0,1-.165-2.278,3.434,3.434,0,0,1,.755-.051q10.574,0,21.149,0h.694v-3.754H330.323v3.754h.72q10.574,0,21.149,0a2.963,2.963,0,0,1,.864.1,1.128,1.128,0,0,1,.759,1.189,1.182,1.182,0,0,1-.973,1.033,2.968,2.968,0,0,1-.468.02q-11.482,0-22.966.011a1.467,1.467,0,0,1-1.461-.844Z" transform="translate(-939 1074)" fill="#710038"/>
    <path id="Path_192" data-name="Path 192" d="M358.43,574.376a1.151,1.151,0,0,1-1.158,1.149,1.18,1.18,0,0,1-1.174-1.144,1.2,1.2,0,0,1,1.2-1.191,1.176,1.176,0,0,1,1.132,1.186Z" transform="translate(-938.303 1075.241)" fill="#710038"/>
    <path id="Path_193" data-name="Path 193" d="M375.712,550.636H359.919v10.377c1.355,0,2.678.02,4-.015a1.312,1.312,0,0,0,.8-.335c1.085-1.04,2.14-2.112,3.2-3.179a1.221,1.221,0,0,1,1.21-.417,1.163,1.163,0,0,1,.512,1.992c-.6.622-1.259,1.192-1.892,1.784l.119.142h7.844V550.636Zm-7.878-2.383q4.332,0,8.664,0c1.219,0,1.589.361,1.589,1.555q0,6,0,12c0,1.165-.378,1.545-1.539,1.546H359.1c-1.175,0-1.559-.373-1.559-1.525q0-6.032,0-12.061c0-1.128.387-1.516,1.509-1.517q4.392,0,8.782,0Z" transform="translate(-938.267 1074.624)" fill="#710038"/>
    <path id="Path_194" data-name="Path 194" d="M361.415,557.36a2.959,2.959,0,0,1,.43-.736c1.486-1.519,2.991-3.017,4.5-4.512a1.155,1.155,0,0,1,1.717-.09,1.176,1.176,0,0,1-.05,1.72q-2.261,2.287-4.546,4.55a1.128,1.128,0,0,1-1.331.3,1.221,1.221,0,0,1-.72-1.235Z" transform="translate(-938.171 1074.709)" fill="#710038"/>
  </g>
</svg>
