<svg xmlns="http://www.w3.org/2000/svg" width="47.602" height="59.037" viewBox="0 0 47.602 59.037">
  <g id="Group_42192" data-name="Group 42192" transform="translate(-143.17 -421.43)">
    <g id="Group_42207" data-name="Group 42207" transform="translate(158.584 435.112)">
      <path id="Path_302" data-name="Path 302" d="M175.8,449.305l-.048-1.957a51.991,51.991,0,0,0-1.737-11.044l-.125-.461-.47-.029c-1.228-.086-2.907-.125-5-.125-2.591,0-5.056.067-5.786.086l-1.315.038-.125.48a50.751,50.751,0,0,0-1.746,11.053l-.048,1.957c-.2,8.75-.585,25.023,1.43,30.128a.931.931,0,0,0,.384.509,1.985,1.985,0,0,0,1.334.681c.067.019.576.1.854.134a1.546,1.546,0,0,0,.585.163c.24.029.988.048,1.8.067l.451.01a1.056,1.056,0,0,0,.393-.077.209.209,0,0,0,.077-.029l.883-.019.883.019c.029.01.058.019.1.029a1,1,0,0,0,.384.077l.451-.01c.816-.019,1.574-.038,1.8-.067a1.546,1.546,0,0,0,.585-.163c.278-.038.787-.115.883-.134a2.028,2.028,0,0,0,1.314-.681.993.993,0,0,0,.374-.489C176.4,474.329,176.012,458.056,175.8,449.305ZM173.162,478.9l-.221.221c0,.01-.106.106-.5.182-.317.048-.854.134-.94.144l-.249.019-.1.115c-.019,0-.048.01-.077.01-.211.019-1.334.048-1.7.058H169a2,2,0,0,0-.461-.1l-.94-.019-.921.019a1.614,1.614,0,0,0-.48.106l-.374-.01c-.365-.01-1.478-.038-1.689-.058-.038,0-.058-.01-.077-.01l-.106-.106-.249-.029c-.086-.01-.624-.1-.931-.144-.4-.077-.509-.173-.528-.2l-.2-.2c-1.89-4.932-1.516-20.936-1.314-29.552l.048-1.967a48.885,48.885,0,0,1,1.574-10.247l.355-.01c.691-.019,3.137-.086,5.719-.086,1.8,0,3.3.029,4.442.1a48.919,48.919,0,0,1,1.564,10.247l.048,1.967C174.678,457.96,175.062,473.964,173.162,478.9Z" transform="translate(-159.235 -435.69)" fill="#710038"/>
    </g>
    <g id="Group_42208" data-name="Group 42208" transform="translate(160.297 421.43)">
      <path id="Path_303" data-name="Path 303" d="M173.273,421.9a3.435,3.435,0,0,0-1.449-.288c-.154,0-.278.01-.278.01l-3.886-.192-3.809.192a4,4,0,0,0-1.765.278,1.788,1.788,0,0,0-1.065,1.7c0,1.468.077,7.753.106,9.643l.01.633.787-.019h.825c.019,0,2.773-.077,5.747-.077,2.063,0,3.723.038,4.9.115h.067a1.445,1.445,0,0,0,.355-.048l.4-.077v-.413c0-.067.106-8.031.106-9.758A1.794,1.794,0,0,0,173.273,421.9Zm-11.159,8.875,6.918-5.584a.331.331,0,1,1,.413.518l-7.321,5.92C162.123,431.37,162.123,431.082,162.114,430.775Zm2.7,2.005,3.944-3.2a.334.334,0,0,1,.422.518l-3.291,2.658C165.5,432.762,165.136,432.771,164.81,432.781Z" transform="translate(-161.02 -421.43)" fill="#710038"/>
    </g>
    <g id="Group_42209" data-name="Group 42209" transform="translate(161.966 449.869)">
      <path id="Path_304" data-name="Path 304" d="M171.549,451.07h-7.733a1.052,1.052,0,0,0-1.055,1.055V460.7H172.6v-8.578A1.059,1.059,0,0,0,171.549,451.07Zm-8.06,1.055a.324.324,0,0,1,.326-.326h7.733a.324.324,0,0,1,.326.326v7.849h-8.386Z" transform="translate(-162.76 -451.07)" fill="#710038"/>
    </g>
    <g id="Group_42211" data-name="Group 42211" transform="translate(177.357 444.563)">
      <path id="Path_306" data-name="Path 306" d="M192.079,456.373l-.038-1.545a40.763,40.763,0,0,0-1.372-8.722l-.125-.441-.451-.029c-.969-.067-2.293-.1-3.943-.1-2.36,0-4.548.058-4.558.067l-1.113.029-.125.461a40.659,40.659,0,0,0-1.382,8.731l-.038,1.545c-.163,6.9-.461,19.727,1.132,23.757a.865.865,0,0,0,.326.451,1.733,1.733,0,0,0,1.113.566c.058.01.441.077.662.106a1.4,1.4,0,0,0,.489.134c.173.019.8.038,1.42.048l.365.01a1.07,1.07,0,0,0,.365-.077l.691-.029.739.038a1.037,1.037,0,0,0,.336.067l.365-.01c.624-.01,1.247-.029,1.43-.048a1.407,1.407,0,0,0,.48-.134c.23-.029.614-.1.681-.106a1.705,1.705,0,0,0,1.094-.566.857.857,0,0,0,.326-.432C192.549,476.09,192.242,463.262,192.079,456.373Zm-2.629,8.607h-7.983V458.1a.944.944,0,0,1,.95-.94H188.5a.95.95,0,0,1,.95.94Z" transform="translate(-178.8 -445.54)" fill="#710038"/>
    </g>
    <g id="Group_42212" data-name="Group 42212" transform="translate(178.709 433.788)">
      <path id="Path_307" data-name="Path 307" d="M190.026,434.694a2.8,2.8,0,0,0-1.2-.24,2.1,2.1,0,0,0-.211.01l-3.07-.154-2.974.154a3.121,3.121,0,0,0-1.458.23,1.514,1.514,0,0,0-.9,1.439c0,1.334.077,7.618.077,7.685l.01.528.739-.019h.652c.019,0,2.216-.058,4.519-.058,1.631,0,2.936.029,3.867.086l.048.01a1.179,1.179,0,0,0,.307-.048l.4-.086.01-.413c0-.067.086-6.352.086-7.685A1.529,1.529,0,0,0,190.026,434.694Zm-.221,8.6c-.921-.048-2.13-.077-3.6-.077-.624,0-1.238,0-1.794.01-.384.01-.748.019-1.075.019-.8.019-1.391.038-1.67.038h-.345c0-.221-.01-.508-.01-.835,0-.259-.01-.537-.01-.844-.029-1.967-.058-4.653-.058-5.469,0-.422.355-.633,1.055-.633h.115l.029.019,3.1-.163,3.09.153.086-.01h.106c.7,0,1.055.211,1.055.633C189.882,437.227,189.834,441.631,189.8,443.291Z" transform="translate(-180.21 -434.31)" fill="#710038"/>
    </g>
    <g id="Group_42213" data-name="Group 42213" transform="translate(180.83 456.989)">
      <path id="Path_309" data-name="Path 309" d="M188.791,458.624v6.064H182.42v-6.064a.139.139,0,0,1,.144-.134h6.083A.139.139,0,0,1,188.791,458.624Z" transform="translate(-182.42 -458.49)" fill="#710038"/>
    </g>
    <g id="Group_42214" data-name="Group 42214" transform="translate(179.803 436.736)">
      <path id="Path_310" data-name="Path 310" d="M186.886,440.969a.335.335,0,0,0-.47-.048l-3.032,2.447c.326,0,.691-.01,1.075-.019l2.37-1.909A.336.336,0,0,0,186.886,440.969Zm.221-3.464a.335.335,0,0,0-.47-.048l-5.287,4.27c0,.307.01.585.01.844l5.69-4.6A.336.336,0,0,0,187.107,437.5Z" transform="translate(-181.35 -437.382)" fill="#710038"/>
    </g>
    <g id="Group_42215" data-name="Group 42215" transform="translate(143.17 444.563)">
      <path id="Path_311" data-name="Path 311" d="M156.449,456.373l-.029-1.545a40.774,40.774,0,0,0-1.382-8.722l-.115-.441-.461-.029c-.969-.067-2.293-.1-3.943-.1-2.36,0-4.548.058-4.558.067l-1.113.029-.125.461a40.539,40.539,0,0,0-1.382,8.731l-.038,1.545c-.163,6.9-.461,19.727,1.132,23.757a.879.879,0,0,0,.326.451,1.759,1.759,0,0,0,1.113.566c.058.01.441.077.662.106a1.53,1.53,0,0,0,.489.134c.173.019.8.038,1.42.048l.365.01a1.127,1.127,0,0,0,.374-.077l.681-.029.748.038a.936.936,0,0,0,.336.067l.355-.01c.624-.01,1.247-.029,1.43-.048a1.407,1.407,0,0,0,.48-.134c.23-.029.614-.1.681-.106a1.705,1.705,0,0,0,1.094-.566.857.857,0,0,0,.326-.432C156.919,476.1,156.612,463.271,156.449,456.373Zm-2.629,8.607h-7.983V458.1a.944.944,0,0,1,.95-.94h6.083a.944.944,0,0,1,.95.94Z" transform="translate(-143.17 -445.54)" fill="#710038"/>
    </g>
    <g id="Group_42216" data-name="Group 42216" transform="translate(144.523 433.788)">
      <path id="Path_312" data-name="Path 312" d="M154.4,434.694a2.765,2.765,0,0,0-1.19-.24,2.2,2.2,0,0,0-.221.01l-3.07-.154-2.974.154a3.121,3.121,0,0,0-1.458.23,1.514,1.514,0,0,0-.9,1.439c0,1.334.086,7.618.086,7.685v.528l.739-.019h.652c.019,0,2.216-.058,4.519-.058,1.631,0,2.936.029,3.867.086l.048.01a1.1,1.1,0,0,0,.307-.048l.413-.086v-.413c0-.067.086-6.352.086-7.685A1.529,1.529,0,0,0,154.4,434.694Zm-8.357,8.587h-.345c0-.221-.01-.508-.01-.835,0-.259-.01-.537-.01-.844-.029-1.967-.058-4.653-.058-5.469,0-.422.355-.633,1.055-.633h.058l.019.019,3.166-.163,3.09.153.144-.01h.058c.691,0,1.046.211,1.046.633,0,1.1-.048,5.613-.067,7.158-.931-.048-2.14-.077-3.608-.077-.614,0-1.228,0-1.785.01-.393.01-.748.019-1.084.019C146.921,443.262,146.317,443.281,146.038,443.281Z" transform="translate(-144.58 -434.31)" fill="#710038"/>
    </g>
    <g id="Group_42217" data-name="Group 42217" transform="translate(146.643 456.989)">
      <path id="Path_314" data-name="Path 314" d="M153.161,458.624v6.064H146.79v-6.064a.139.139,0,0,1,.144-.134h6.083A.139.139,0,0,1,153.161,458.624Z" transform="translate(-146.79 -458.49)" fill="#710038"/>
    </g>
    <g id="Group_42218" data-name="Group 42218" transform="translate(145.617 436.736)">
      <path id="Path_315" data-name="Path 315" d="M151.477,437.5a.335.335,0,0,0-.47-.048l-5.287,4.27c0,.307.01.585.01.844l5.69-4.6A.336.336,0,0,0,151.477,437.5Zm-.221,3.464a.335.335,0,0,0-.47-.048l-3.032,2.447c.336,0,.691-.01,1.084-.019l2.37-1.909A.334.334,0,0,0,151.256,440.969Z" transform="translate(-145.72 -437.382)" fill="#710038"/>
    </g>
  </g>
</svg>
