<svg xmlns="http://www.w3.org/2000/svg" width="54.414" height="60" viewBox="0 0 54.414 60">
  <g id="Group_42190" data-name="Group 42190" transform="translate(418.993 -1593.881)">
    <path id="Path_163" data-name="Path 163" d="M562.054,577.516V566.737H556.06v10.779Zm10.01.006v-.571q0-22.014.011-44.029a.7.7,0,0,0-.562-.784q-12.3-4.54-24.583-9.111c-.268-.1-.543-.186-.886-.3V548.7a5.419,5.419,0,0,1-.013.644,1.143,1.143,0,0,1-1.219,1.02c-.7-.032-1.111-.534-1.111-1.378q-.006-5.13,0-10.26v-.678c-.219.086-.363.136-.5.2q-10.189,4.524-20.385,9.037c-.419.185-.454.436-.454.812q.011,10.933.005,21.867v.635h4v-.681q0-3.547,0-7.094c0-1.036.43-1.46,1.463-1.46q5.189,0,10.378,0c1.106,0,1.5.405,1.5,1.534q0,3.548,0,7.095v.622H543.7v-8.689c0-.625,0-1.25,0-1.876.006-.867.441-1.385,1.159-1.393.734-.008,1.174.5,1.185,1.363,0,.156,0,.313,0,.469V577.5h2.572V577c0-2.052-.005-4.1,0-6.156a1.176,1.176,0,0,1,1.427-1.27,1.216,1.216,0,0,1,.913,1.327c.005,1.993,0,3.987,0,5.98v.61h2.714v-.682q0-5.453,0-10.905c0-1.162.383-1.551,1.542-1.552q3.839-.006,7.679,0c1.15,0,1.533.4,1.534,1.563q0,5.453,0,10.905v.672h2.715c0-2.208,0-4.376,0-6.543,0-.873.432-1.387,1.153-1.4.753-.01,1.188.5,1.189,1.418,0,1.974,0,3.947,0,5.921v.628Zm-51.233,2.359a1.646,1.646,0,0,1-.825-1.6q.025-15.565,0-31.129a1.59,1.59,0,0,1,1.077-1.66c7.353-3.244,14.692-6.522,22.042-9.771a.829.829,0,0,0,.584-.905c-.018-4.475-.012-8.95-.01-13.425,0-1.323.68-1.8,1.932-1.333q13.828,5.119,27.655,10.245c.94.348,1.122.627,1.122,1.664q0,23.156.011,46.313a1.648,1.648,0,0,1-.824,1.6Z" transform="translate(-939 1074)" fill="#710038"/>
    <path id="Path_164" data-name="Path 164" d="M532.9,557.478h-4.983c-1.344,0-1.68-.343-1.681-1.71q0-2.814,0-5.628c0-.909.194-1.187,1.047-1.546,2.193-.923,4.381-1.859,6.583-2.763a3.655,3.655,0,0,1,1.241-.256c1.054-.035,2.11-.019,3.165-.007a1.169,1.169,0,0,1,1.3,1.309q.012,4.631,0,9.262a1.183,1.183,0,0,1-1.34,1.335c-1.779.013-3.558,0-5.335,0Z" transform="translate(-938.872 1074.527)" fill="#710038"/>
    <path id="Path_165" data-name="Path 165" d="M554.472,534.648l-4.054-1.492v9.576h4.054v-8.084Zm-6.431,3.247c0-1.932,0-3.865,0-5.8,0-.969.423-1.441,1.38-1.406a7,7,0,0,1,1.935.321c1.5.5,2.967,1.077,4.445,1.629a1.281,1.281,0,0,1,1.037,1.481q0,4.772,0,9.545c0,1.019-.4,1.443-1.4,1.448q-2.986.017-5.973,0c-1.016-.005-1.421-.417-1.422-1.425q0-2.9,0-5.8Z" transform="translate(-938.424 1074.222)" fill="#710038"/>
    <path id="Path_166" data-name="Path 166" d="M550.42,550.23v7.335h4.033V550.23Zm6.42,3.691c0,1.544,0,3.088,0,4.631,0,.957-.438,1.393-1.408,1.4q-2.99.011-5.98,0c-.971,0-1.405-.436-1.407-1.394q-.006-4.66,0-9.321c0-.948.41-1.373,1.347-1.377q3.049-.014,6.1,0c.935,0,1.349.433,1.351,1.375.006,1.563,0,3.127,0,4.69Z" transform="translate(-938.424 1074.574)" fill="#710038"/>
    <path id="Path_167" data-name="Path 167" d="M566.294,557.59v-7.347h-4.027v7.347Zm-6.419-3.7c0-1.561,0-3.123,0-4.684,0-.91.415-1.344,1.311-1.349q3.072-.017,6.147,0a1.172,1.172,0,0,1,1.337,1.327q.008,4.713,0,9.426a1.2,1.2,0,0,1-1.343,1.339q-3.043.015-6.088,0a1.207,1.207,0,0,1-1.364-1.374c-.006-1.561,0-3.123,0-4.683Z" transform="translate(-938.181 1074.574)" fill="#710038"/>
    <path id="Path_168" data-name="Path 168" d="M562.242,542.693h4.087v-2.2c0-1.443,0-1.444-1.377-1.95-.889-.327-1.779-.651-2.71-.992v5.142Zm-2.366-2.84c0-1.27-.006-2.539,0-3.809a1.192,1.192,0,0,1,1.755-1.23c2.033.741,4.06,1.5,6.086,2.254a1.231,1.231,0,0,1,.953,1.365q.006,2.638,0,5.273a1.162,1.162,0,0,1-1.287,1.324q-3.1.026-6.21,0c-.891-.007-1.294-.456-1.3-1.371-.005-1.269,0-2.538,0-3.808Z" transform="translate(-938.181 1074.304)" fill="#710038"/>
    <path id="Path_169" data-name="Path 169" d="M544.434,552.7a1.153,1.153,0,0,1,1.129,1.165,1.167,1.167,0,1,1-2.335-.015,1.158,1.158,0,0,1,1.206-1.15Z" transform="translate(-938.523 1074.674)" fill="#710038"/>
  </g>
</svg>
