<svg xmlns="http://www.w3.org/2000/svg" width="60" height="56.665" viewBox="0 0 60 56.665">
  <g id="Group_42175" data-name="Group 42175" transform="translate(517.033 -1594.967)">
    <path id="Path_171" data-name="Path 171" d="M421.967,552.036c.786-1.432,1.581-2.86,2.351-4.3a1.01,1.01,0,0,0,.064-.61c-.236-1.324-.5-2.644-.744-3.966-.029-.153-.051-.308-.068-.463a1.13,1.13,0,0,1,1.364-1.354c1.443.234,2.874.536,4.317.771a1.607,1.607,0,0,0,.93-.143c1.23-.633,2.434-1.317,3.653-1.975,1.055-.568,1.822-.153,1.977,1.05.18,1.392.358,2.785.568,4.173a1.3,1.3,0,0,0,.357.686c.975.957,1.976,1.886,2.966,2.828s.846,1.753-.393,2.345-2.469,1.163-3.689,1.772a1.3,1.3,0,0,0-.546.544c-.633,1.274-1.228,2.566-1.847,3.847a1.193,1.193,0,0,1-2.145.345c-.988-1.027-1.953-2.076-2.95-3.093a1.307,1.307,0,0,0-.69-.351c-1.35-.205-2.7-.405-4.059-.54a1.693,1.693,0,0,1-1.417-.859v-.7Z" transform="translate(-939 1074.014)" fill="#710038"/>
    <path id="Path_172" data-name="Path 172" d="M444.684,538.736c0-.937.017-1.873-.011-2.809a1.374,1.374,0,0,0-.246-.737c-1.1-1.466-2.23-2.913-3.346-4.369-.774-1.009-.493-1.832.737-2.193,1.739-.51,3.481-1.012,5.212-1.545a1.379,1.379,0,0,0,.674-.483c1.067-1.515,2.1-3.052,3.155-4.577a1.2,1.2,0,0,1,2.209.009c1.044,1.508,2.065,3.031,3.123,4.529a1.476,1.476,0,0,0,.715.519c1.748.544,3.511,1.045,5.265,1.571,1.155.347,1.423,1.18.693,2.138-1.114,1.457-2.245,2.9-3.341,4.371a1.465,1.465,0,0,0-.272.842c.024,1.815.086,3.63.137,5.444.035,1.251-.653,1.756-1.84,1.338-1.672-.589-3.345-1.178-5.01-1.788a1.481,1.481,0,0,0-1.113-.013c-1.662.618-3.338,1.2-5.01,1.788-1.247.44-1.913-.066-1.882-1.4a18.173,18.173,0,0,1,.152-2.634Z" transform="translate(-938.986 1074)" fill="#710038"/>
    <path id="Path_173" data-name="Path 173" d="M480.379,542.556c-.183,1-.3,2.1-.6,3.142a3.777,3.777,0,0,0,.524,3.408,24.749,24.749,0,0,1,1.413,2.561,1.189,1.189,0,0,1-.989,1.9c-1.412.192-2.827.363-4.236.577a1.4,1.4,0,0,0-.735.376c-.974.988-1.913,2.009-2.874,3.009-.864.9-1.694.756-2.241-.384-.572-1.2-1.118-2.407-1.724-3.586a1.923,1.923,0,0,0-.773-.789c-1.214-.624-2.463-1.18-3.691-1.775-1.058-.513-1.183-1.364-.327-2.181,1.017-.972,2.05-1.927,3.053-2.912a1.3,1.3,0,0,0,.353-.687c.214-1.428.393-2.862.58-4.294a1.183,1.183,0,0,1,1.866-.974c1.277.673,2.533,1.387,3.814,2.052a1.406,1.406,0,0,0,.824.124c1.443-.24,2.877-.532,4.319-.782a1.171,1.171,0,0,1,1.439,1.214Z" transform="translate(-938.969 1074.014)" fill="#710038"/>
    <path id="Path_174" data-name="Path 174" d="M471.916,524.115a3.134,3.134,0,0,1-2.822,2.03,3,3,0,0,1,1.08,3.263,3.1,3.1,0,0,1,3.469,0,3.015,3.015,0,0,1,1.011-3.278,2.953,2.953,0,0,1-2.737-2.017Zm-4.044,5.527a2.518,2.518,0,0,0-.851-2.5,6.5,6.5,0,0,1-.71-.93,1.167,1.167,0,0,1,.615-1.8,3.476,3.476,0,0,1,.729-.213,3.545,3.545,0,0,0,2.865-2.088c.769-1.488,1.962-1.544,2.757.015a3.592,3.592,0,0,0,2.873,2.074,1.562,1.562,0,0,1,.224.068c1.473.416,1.793,1.231.768,2.364a4.5,4.5,0,0,0-1.24,3.861c.184,1.427-.646,2.057-1.922,1.434a4.836,4.836,0,0,0-4.386.084c-1.012.449-1.731-.122-1.725-1.23,0-.059,0-.117,0-.176v-.959Z" transform="translate(-938.967 1074)" fill="#710038"/>
    <path id="Path_175" data-name="Path 175" d="M433.688,529.365a6.52,6.52,0,0,1,.033-1.75,6.972,6.972,0,0,1,.953-1.51,3.03,3.03,0,0,1-2.7-1.99,2.963,2.963,0,0,1-2.587,2.039,3.473,3.473,0,0,1,1.035,3.177,3,3,0,0,1,3.263.034Zm-5.712.35a2.371,2.371,0,0,0-.737-2.451,7.867,7.867,0,0,1-.786-1.019,1.109,1.109,0,0,1,.61-1.816,5.194,5.194,0,0,0,4-2.9,1.105,1.105,0,0,1,1.913-.023A12.516,12.516,0,0,1,434,523a1.8,1.8,0,0,0,1.272.91c.549.128,1.09.3,1.627.476a1.176,1.176,0,0,1,.655,1.9,1,1,0,0,1-.142.186,4.617,4.617,0,0,0-1.4,4.219c.138,1.209-.684,1.806-1.781,1.285a4.849,4.849,0,0,0-4.44,0c-1.106.52-1.854-.1-1.822-1.345.008-.293,0-.585,0-.917Z" transform="translate(-938.997 1074)" fill="#710038"/>
    <path id="Path_176" data-name="Path 176" d="M451.046,576.163c.011.892-.416,1.393-1.054,1.438-.692.049-1.148-.375-1.289-1.155-.246-1.36-.42-2.742-.783-4.072a29.5,29.5,0,0,0-8.207-13.543c-.993-.961-2.089-1.817-3.16-2.692-.665-.541-.86-1.183-.453-1.761a1.183,1.183,0,0,1,1.8-.158c6.786,5.181,11.331,11.791,12.9,20.29.112.613.185,1.234.247,1.653Z" transform="translate(-938.99 1074.025)" fill="#710038"/>
    <path id="Path_177" data-name="Path 177" d="M452.848,576.424a28.457,28.457,0,0,1,2.25-8.583,33.687,33.687,0,0,1,10.788-13.528,2.244,2.244,0,0,1,.71-.39,1.115,1.115,0,0,1,1.313.625,1.179,1.179,0,0,1-.424,1.5c-1.122.938-2.295,1.824-3.337,2.844a29.285,29.285,0,0,0-8.609,15.382c-.161.8-.244,1.619-.392,2.423a1.154,1.154,0,0,1-2.1.376,2.372,2.372,0,0,1-.2-.643Z" transform="translate(-938.977 1074.025)" fill="#710038"/>
    <path id="Path_178" data-name="Path 178" d="M450.78,554.706c0-3.125-.009-6.251.013-9.376a2.014,2.014,0,0,1,.3-1.03.911.911,0,0,1,1.2-.323,2.726,2.726,0,0,1,.8.91c.084.122.028.342.028.518q0,9.318,0,18.635c0,.136.006.274-.006.409a1.154,1.154,0,0,1-1.146,1.106,1.131,1.131,0,0,1-1.183-1.122c-.029-.8-.009-1.6-.01-2.4v-7.325Z" transform="translate(-938.978 1074.017)" fill="#710038"/>
    <path id="Path_179" data-name="Path 179" d="M460,576.058a5.031,5.031,0,0,1,.226-.593,18.3,18.3,0,0,1,11.008-9.288,1.176,1.176,0,0,1,1.648.738c.193.649-.18,1.229-.957,1.5a16.338,16.338,0,0,0-9.007,6.987c-.284.464-.5.971-.782,1.437a1.117,1.117,0,0,1-1.376.48,1.171,1.171,0,0,1-.762-1.256Z" transform="translate(-938.971 1074.034)" fill="#710038"/>
    <path id="Path_180" data-name="Path 180" d="M433.42,566.073c.145.042.431.105.7.205a18.317,18.317,0,0,1,10.7,9.24c.452.918.054,1.771-.839,1.851a1.178,1.178,0,0,1-1.243-.781,15.083,15.083,0,0,0-6.546-6.8,34.122,34.122,0,0,0-3.256-1.433,1.162,1.162,0,0,1-.812-1.319,1.187,1.187,0,0,1,1.293-.961Z" transform="translate(-938.992 1074.034)" fill="#710038"/>
    <path id="Path_181" data-name="Path 181" d="M430.043,562.334c1.066,0,1.62.385,1.634,1.141.015.774-.572,1.2-1.653,1.2a3.769,3.769,0,0,1-.7-.031,1.164,1.164,0,0,1,.133-2.306c.193-.015.388,0,.583,0Z" transform="translate(-938.995 1074.031)" fill="#710038"/>
    <path id="Path_182" data-name="Path 182" d="M473.9,562.332c1.113,0,1.646.389,1.629,1.192-.017.774-.549,1.151-1.627,1.15a4.41,4.41,0,0,1-.641-.02,1.189,1.189,0,0,1-1.032-1.217,1.177,1.177,0,0,1,1.146-1.1c.175-.011.35,0,.525,0Z" transform="translate(-938.962 1074.031)" fill="#710038"/>
    <path id="Path_183" data-name="Path 183" d="M424.706,562.331c.156,0,.312-.005.467,0a1.169,1.169,0,1,1,.018,2.337c-.29.017-.583.014-.875,0a1.173,1.173,0,1,1,.039-2.34c.117,0,.234,0,.35,0Z" transform="translate(-938.999 1074.031)" fill="#710038"/>
    <path id="Path_184" data-name="Path 184" d="M479.157,562.332c.175,0,.351-.008.525,0a1.164,1.164,0,0,1,.063,2.325,6.692,6.692,0,0,1-1.049.008,1.169,1.169,0,1,1,.052-2.336c.136,0,.272,0,.408,0Z" transform="translate(-938.958 1074.031)" fill="#710038"/>
    <path id="Path_185" data-name="Path 185" d="M428.539,566.142v.116c0,.992-.434,1.552-1.184,1.537s-1.16-.57-1.16-1.573a5.072,5.072,0,0,1,.017-.7,1.185,1.185,0,0,1,1.208-1.043,1.172,1.172,0,0,1,1.113,1.136c.012.174,0,.35,0,.525Z" transform="translate(-938.997 1074.033)" fill="#710038"/>
    <path id="Path_186" data-name="Path 186" d="M475.37,566.127c0-1.094.411-1.667,1.188-1.647.756.019,1.153.583,1.152,1.64a4.428,4.428,0,0,1-.018.641,1.164,1.164,0,0,1-2.32-.109c-.011-.174,0-.35,0-.525Z" transform="translate(-938.96 1074.033)" fill="#710038"/>
    <path id="Path_187" data-name="Path 187" d="M428.536,560.87c0,.155.007.311,0,.466a1.166,1.166,0,0,1-2.331.046,7.834,7.834,0,0,1-.007-.933,1.206,1.206,0,0,1,1.182-1.259,1.186,1.186,0,0,1,1.158,1.271c0,.136,0,.272,0,.408Z" transform="translate(-938.997 1074.029)" fill="#710038"/>
    <path id="Path_188" data-name="Path 188" d="M475.372,560.822c-.005-1.062.388-1.62,1.144-1.632.771-.012,1.2.574,1.193,1.658a3.425,3.425,0,0,1-.049.753,1.159,1.159,0,0,1-2.286-.2c-.015-.193,0-.388,0-.583Z" transform="translate(-938.96 1074.029)" fill="#710038"/>
    <path id="Path_189" data-name="Path 189" d="M453.121,568.262a1.168,1.168,0,1,1-1.143-1.167,1.159,1.159,0,0,1,1.143,1.167Z" transform="translate(-938.978 1074.035)" fill="#710038"/>
  </g>
</svg>
