<svg xmlns="http://www.w3.org/2000/svg" width="51.79" height="60" viewBox="0 0 51.79 60">
  <g id="Group_42184" data-name="Group 42184" transform="translate(482.908 -1508.89)">
    <path id="Path_132" data-name="Path 132" d="M467.782,471.17h.769q8.024,0,16.049,0a6.136,6.136,0,0,1,.644.016.86.86,0,0,1,.033,1.708,4.8,4.8,0,0,1-.758.031l-21.32,0a4.838,4.838,0,0,0-.76.033.949.949,0,0,0-.887.873c-.054.71-.014,1.427-.014,2.161H499.81c0-.491,0-.953,0-1.416,0-1.34-.312-1.652-1.654-1.652q-4.51,0-9.019,0c-.734,0-1.125-.344-1.1-.916.021-.55.389-.83,1.116-.837s1.482,0,2.225,0H493.7c0-.6.007-1.127,0-1.651a2.164,2.164,0,0,0-2.322-2.295c-1.29-.01-2.578-.014-3.865.007a2.081,2.081,0,0,0-.776.194c-1.213.528-2.407,1.107-3.633,1.609a6.262,6.262,0,0,1-4.9-.007c-1.206-.5-2.387-1.061-3.579-1.59a1.647,1.647,0,0,0-.6-.2c-1.444-.014-2.89-.031-4.334.012A2.017,2.017,0,0,0,467.8,468.9a17.872,17.872,0,0,0-.019,2.27Zm-9.274,6.611c-.385-.269-.717-.588-.552-1.107.279-.88,1.069-.583,1.783-.686,0-.533,0-1.069,0-1.606a2.918,2.918,0,0,1,3.239-3.213c.972,0,1.944,0,2.994,0,0-.547,0-1.029,0-1.51a3.939,3.939,0,0,1,4.221-4.2c.269,0,.538,0,.986,0-.564-.41-1.022-.689-1.422-1.036-1.762-1.538-3.506-3.095-5.256-4.648a.957.957,0,0,1-.335-1.1c.233-.63.984-.715,1.534-.189,1.073,1.024,2.1,2.1,3.23,3.057a33.951,33.951,0,0,0,9.873,5.842,4.953,4.953,0,0,0,3.707,0,34.791,34.791,0,0,0,10.329-6.21c.118-.1.229-.214.356-.306a.886.886,0,0,1,1.217.07.87.87,0,0,1-.087,1.257c-.767.663-1.557,1.3-2.354,1.93-.548.431-1.128.821-1.7,1.3a4.931,4.931,0,0,1,4.176,1.342c1.156,1.257,1,2.8,1.009,4.4.819,0,1.6.05,2.366-.01,2.569-.2,3.959,1.251,3.749,3.773-.028.344,0,.691,0,1.052.653.12,1.42-.189,1.711.653.179.521-.148.837-.483,1.144Z" transform="translate(-937.66 1091.109)" fill="#710038"/>
    <path id="Path_133" data-name="Path 133" d="M483.369,463.829h-2.746c-.052.726-.139,1.5.627,2a1.275,1.275,0,0,0,1.482,0c.771-.5.684-1.274.637-2.006Zm-17.087-14.287a1.693,1.693,0,0,0,1.623-1.6,1.667,1.667,0,0,0-1.621-1.658,1.627,1.627,0,1,0,0,3.254Zm33.057-1.647a1.639,1.639,0,0,0-1.658-1.607,1.665,1.665,0,0,0-1.6,1.68,1.69,1.69,0,0,0,1.644,1.574,1.628,1.628,0,0,0,1.611-1.647Zm5.3,21.12-1.868-1.822c-.5.484-1.222,1.18-1.673,1.614l1.8,1.838,1.737-1.63Zm-29.671-11.006c1.008,0,1.281-.238,1.58-1.191a7.234,7.234,0,0,1,.708-1.588.876.876,0,0,0,.031-.969,2.585,2.585,0,0,0-4.86,1.531,2.567,2.567,0,0,0,2.541,2.216Zm14.025,0a2.563,2.563,0,0,0,2.567-2.185,2.585,2.585,0,0,0-4.841-1.592.9.9,0,0,0,.031,1.021,6.615,6.615,0,0,1,.7,1.59c.285.92.554,1.158,1.541,1.166Zm-10.871.208a3.875,3.875,0,1,0,3.9-3.853,3.864,3.864,0,0,0-3.9,3.853Zm23.523,14.417c-1.029,1.269-2.02,2.524-3.053,3.742a1.219,1.219,0,0,1-.823.436.954.954,0,0,1-.738-.507,1.307,1.307,0,0,1,.207-1c.96-1.3,1.975-2.565,2.968-3.843.1-.122.174-.259.307-.462-.351-.241-.684-.5-1.043-.71-1.248-.734-1.239-1.935-.066-2.8a9.532,9.532,0,0,0,1.9-1.864,1.692,1.692,0,0,1,2.414-.724c.335-.989.692-1.972,1-2.966a38.82,38.82,0,0,0,1.4-7.287,1.2,1.2,0,0,0-.873-1.462,22.785,22.785,0,0,1-4.907-2.579c-.118-.082-.368-.139-.453-.075a3.74,3.74,0,0,1-2.44.778c-.625,2.845-1.39,3.614-4.067,4.077a4.482,4.482,0,0,1-1.857,3.574,4.409,4.409,0,0,1-3.97.581,9.474,9.474,0,0,1-.616,1.382,6.627,6.627,0,0,1-1.238,1.534,1.374,1.374,0,0,0-.554,1.291,3.7,3.7,0,0,1-1.048,3.253c.866,1.048,1.708,2.067,2.55,3.084,1.343,1.625,1.34,2.795-.01,4.426-.8.962-1.586,1.93-2.388,2.888a2.793,2.793,0,0,1-4.5.007q-1.336-1.593-2.652-3.2a2.786,2.786,0,0,1-.021-3.789c.911-1.121,1.838-2.23,2.814-3.411-1.128-.982-1.087-2.316-1.061-3.654a.773.773,0,0,0-.191-.559,5.9,5.9,0,0,1-2.144-3.253,4.507,4.507,0,0,1-4.02-.576,4.445,4.445,0,0,1-1.857-3.577,4.066,4.066,0,0,1-4.048-4.074,3.793,3.793,0,0,1-2.458-.772.5.5,0,0,0-.45.059,23.273,23.273,0,0,1-4.961,2.6,1.186,1.186,0,0,0-.835,1.43,35.545,35.545,0,0,0,6.44,17.588c.115.16.236.312.335.481a.878.878,0,0,1-.21,1.2.859.859,0,0,1-1.2-.186c-.437-.573-.852-1.166-1.244-1.772a36.511,36.511,0,0,1-5.671-15.582c-.056-.465-.123-.929-.186-1.392a3.078,3.078,0,0,1,1.984-3.451c1.515-.7,2.972-1.536,4.452-2.314a.636.636,0,0,0,.366-.784,3.344,3.344,0,0,1,3.876-3.833.581.581,0,0,0,.7-.345c.8-1.536,1.614-3.064,2.378-4.617.377-.769.635-1.593.977-2.38a3.61,3.61,0,0,1,3.518-2.352q7.613-.026,15.229,0a3.6,3.6,0,0,1,3.511,2.362c.521,1.218.953,2.477,1.524,3.671.545,1.139,1.219,2.217,1.831,3.324a.586.586,0,0,0,.71.33,3.354,3.354,0,0,1,3.862,3.852.6.6,0,0,0,.332.746c1.461.772,2.89,1.616,4.391,2.3a3.146,3.146,0,0,1,2.067,3.616,39.76,39.76,0,0,1-2.39,10.1c-.073.182-.142.363-.217.543-.373.91-.377.911.43,1.51.2.151.424.278.632.424a1.511,1.511,0,0,1,.005,2.553,12.132,12.132,0,0,0-2.02,1.993c-.844,1.092-1.586,1.262-2.642.4Z" transform="translate(-939 1074)" fill="#710038"/>
    <path id="Path_134" data-name="Path 134" d="M463.663,451.413l-1.09,1.081c.378.4.83.873,1.2,1.265.373-.326.826-.719,1.272-1.109l-1.383-1.238Zm.2,4.822a1.736,1.736,0,0,1-1.291-.847,4.137,4.137,0,0,0-1.632-1.625,1.36,1.36,0,0,1-.05-2.4,9.477,9.477,0,0,0,1.626-1.635,1.405,1.405,0,0,1,2.388.019,9.942,9.942,0,0,0,1.658,1.684,1.408,1.408,0,0,1,.042,2.326c-.606.5-1.106,1.13-1.682,1.67a12.328,12.328,0,0,1-1.059.805Z" transform="translate(-935.978 1084.437)" fill="#710038"/>
  </g>
</svg>
