<svg xmlns="http://www.w3.org/2000/svg" width="60" height="59.037" viewBox="0 0 60 59.037">
  <g id="Group_42185" data-name="Group 42185" transform="translate(707.831 -1495.342)">
    <path id="Path_144" data-name="Path 144" d="M231.169,459.772a1.889,1.889,0,0,1,1.787-.839c2.108.04,4.218.014,6.328.014,1.194,0,1.46.183,1.869,1.312l3.649-.605.109-.178c-.585-.541-1.194-1.058-1.751-1.627a16.732,16.732,0,0,1-2.952-18.943,1.3,1.3,0,0,1,.664-.66.952.952,0,0,1,.86.256,1.341,1.341,0,0,1,.07,1.066,15.409,15.409,0,0,0-1.415,4.8,14.653,14.653,0,0,0,3.747,11.952c.84.926,1.729,1.807,2.626,2.676a.94.94,0,0,0,.7.2c2.389-.381,4.776-.774,7.156-1.2a18.148,18.148,0,0,1,7.03.295c.954.2,1.929.312,2.873.548a4.752,4.752,0,0,1,3.774,3.3,3.473,3.473,0,0,1-2.914,4.4,12.283,12.283,0,0,1-3.023,0c-1.4-.117-2.789-.333-4.182-.518-.888-.117-1.4.186-1.534.941-.124.68.341,1.225,1.187,1.374,2.746.484,5.48,1.08,8.246,1.389a14.815,14.815,0,0,0,3.8-.5c.147-.023.277-.2.4-.329,4.056-4.146,8.185-8.223,12.143-12.462,4.031-4.317,4.891-9.428,3.2-15.024a2.471,2.471,0,0,0-.141-.309,10.569,10.569,0,0,1-14.954-7.131,14.341,14.341,0,0,0-2.059,1.069c-1.252.922-2.473,1.9-3.63,2.936-1.307,1.173-1.756,1.238-2.975-.016a15.127,15.127,0,0,0-7.341-4.485,10.268,10.268,0,0,0-10.3,2.69c-.472.472-.942.512-1.339.142a.908.908,0,0,1,.1-1.388,11.732,11.732,0,0,1,10.484-3.438,15.737,15.737,0,0,1,9,4.625c.278.272.513.588.789.908.511-.487.932-.89,1.355-1.29a16.02,16.02,0,0,1,5.254-3.335.6.6,0,0,0,.463-.67,10.055,10.055,0,0,1,.976-4.361c.309-.648.73-.867,1.233-.648.524.228.65.716.358,1.384a8.665,8.665,0,1,0,9.063-4.9,8.493,8.493,0,0,0-6.356,1.6c-.095.069-.187.143-.286.2a.87.87,0,0,1-1.24-.2.819.819,0,0,1,.2-1.19,16.124,16.124,0,0,1,2.732-1.554,10.393,10.393,0,0,1,10.382,17.7.636.636,0,0,0-.215.834c2.1,6.572.945,12.445-3.872,17.473-3.228,3.37-6.517,6.682-9.778,10.021-.133.136-.254.281-.479.531,1.5-.291,2.85-.551,4.2-.819.935-.186,1.863-.437,2.807-.556a5.377,5.377,0,0,1,1.8.084,3.21,3.21,0,0,1,2.077,4.978,4.936,4.936,0,0,1-2.909,2.125q-6.935,2.216-13.866,4.443-1.754.561-3.523,1.073a12.085,12.085,0,0,1-6.754-.093c-5.128-1.422-10.267-2.806-15.4-4.2a3.229,3.229,0,0,0-.33-.057c-.431,1.1-.706,1.285-1.876,1.285-2.148,0-4.3-.015-6.444.009a1.617,1.617,0,0,1-1.663-.937V459.772Z" transform="translate(-939 1074)" fill="#710038"/>
    <path id="Path_145" data-name="Path 145" d="M264.2,447.136c-1.091,1.905-2.136,3.734-3.184,5.56-.594,1.033-1.268,1.043-1.909.027-.611-.967-1.219-1.936-1.888-3-.509.847-.983,1.6-1.421,2.373a1.258,1.258,0,0,1-1.239.694c-1.64-.025-3.28-.007-4.92-.01-.732,0-1.123-.325-1.112-.9.011-.554.386-.853,1.1-.855,1.445,0,2.889.013,4.333-.017a.891.891,0,0,0,.63-.354c.6-.933,1.156-1.9,1.735-2.848.527-.861,1.212-.865,1.76-.009.638,1,1.265,2,1.939,3.066.164-.273.284-.465.4-.662.969-1.692,1.933-3.387,2.909-5.076.54-.938,1.282-.93,1.8.02q2.046,3.715,4.081,7.437c.1.185.214.363.354.6.723-1.213,1.427-2.356,2.09-3.524a1.336,1.336,0,0,1,1.323-.75c2.225.029,4.451.011,6.677.012.749,0,1.136.3,1.138.869s-.39.885-1.129.887c-1.972,0-3.945.021-5.916-.013a.974.974,0,0,0-1,.586c-.749,1.324-1.542,2.622-2.326,3.926-.559.931-1.29.922-1.81-.025q-2.018-3.664-4.024-7.335c-.112-.2-.232-.4-.393-.679Z" transform="translate(-939.739 1073.017)" fill="#710038"/>
    <path id="Path_146" data-name="Path 146" d="M281.89,431.139c0-.858-.006-1.615,0-2.373.008-.71.313-1.077.872-1.074s.87.369.881,1.078c.011.757,0,1.517,0,2.368.677,0,1.313,0,1.947,0a4.763,4.763,0,0,1,.758.034.8.8,0,0,1,.737.9.786.786,0,0,1-.822.814c-.682.027-1.365.009-2.049.015-.17,0-.341.019-.571.034,0,.718,0,1.4,0,2.077a3.317,3.317,0,0,1-.037.641.807.807,0,0,1-.919.712.782.782,0,0,1-.781-.8c-.029-.721-.032-1.444-.011-2.165.01-.373-.1-.527-.493-.51-.663.026-1.326.015-1.99,0-.613-.012-.979-.331-1-.837-.018-.528.359-.894.995-.911.8-.02,1.6,0,2.478,0Z" transform="translate(-941.012 1073.73)" fill="#710038"/>
  </g>
</svg>
