<svg id="car" xmlns="http://www.w3.org/2000/svg" width="60" height="40" viewBox="0 0 60 40">
  <path id="Path_285" data-name="Path 285" d="M75.565,112.623c-.375-.625-4.076-2.224-4.076-2.224.644-.333,1.084-.4,1.084-1.776,0-1.5-.007-2-1.008-2H68.173c-.014-.03-.029-.061-.043-.092-2.19-4.783-2.484-5.991-5.75-7.619C58,96.733,49.785,96.623,46.565,96.623s-11.434.11-15.811,2.289c-3.27,1.625-3.189,2.461-5.75,7.619a.478.478,0,0,1-.05.092h-3.4c-.993,0-1,.5-1,2,0,1.375.44,1.444,1.084,1.776a35.635,35.635,0,0,0-4.076,2.224c-.5.5-1,4-1,10s.5,12,.5,12h1.492c0,1.75.257,2,1.008,2h10c.75,0,1-.25,1-2h32c0,1.75.25,2,1,2h10.25c.5,0,.75-.375.75-2h1.5s.5-6.125.5-12-.625-9.375-1-10ZM30.223,118.24a64.6,64.6,0,0,1-6.855.382c-2.553,0-2.64.164-2.82-1.43A9.02,9.02,0,0,1,20.611,115l.079-.381h.375a17.238,17.238,0,0,1,5.569.848,12.25,12.25,0,0,1,3.761,1.883,1.8,1.8,0,0,1,.67.77Zm30.9,9-.553,1.382h-28s.049-.076-.625-1.4c-.5-.978.125-1.6,1.114-1.958a41.591,41.591,0,0,1,13.511-2.645,35.4,35.4,0,0,1,13.563,2.645c.687.355,1.541.6.99,1.98ZM28.993,110.174a12.032,12.032,0,0,1-1.212.009c.326-.58.507-1.226.826-1.9,1-2.125,2.144-4.53,4.18-5.544,2.943-1.465,9.041-2.125,13.779-2.125s10.836.655,13.779,2.125c2.036,1.014,3.175,3.42,4.18,5.544.321.681.5,1.333.835,1.916-.25.014-.537,0-1.224-.024Zm43.465,7.014c-.268,1.56-.018,1.435-2.695,1.435a64.606,64.606,0,0,1-6.855-.382.537.537,0,0,1-.173-.887A11.731,11.731,0,0,1,66.5,115.47a16.2,16.2,0,0,1,5.636-.836.4.4,0,0,1,.386.375,8.766,8.766,0,0,1-.061,2.184Z" transform="translate(-16.565 -96.623)" fill="#710038"/>
</svg>
