<svg xmlns="http://www.w3.org/2000/svg" width="60" height="59.996" viewBox="0 0 60 59.996">
  <g id="Group_42181" data-name="Group 42181" transform="translate(0)">
    <path id="Path_110" data-name="Path 110" d="M740.624,437.692c.045-.061.092-.122.133-.184a1.172,1.172,0,0,1,2.207.647q.008,4.775,0,9.549v2.958h2.109V438.539c0-.157-.006-.314,0-.468a1.168,1.168,0,1,1,2.335-.028c.019.39.006.782.006,1.172v11.446h2.109V438.475a4.43,4.43,0,0,1,.016-.584,1.166,1.166,0,0,1,2.309-.016,3.854,3.854,0,0,1,.017.584q0,5.769,0,11.539v.668h2.109v-12.2a4.165,4.165,0,0,1,.016-.586,1.166,1.166,0,0,1,2.309-.006,4.143,4.143,0,0,1,.016.584q0,6.8,0,13.591a7.1,7.1,0,0,1-4,6.7c-.382.2-.331.468-.331.768q0,16.781,0,33.565a3.55,3.55,0,0,1-2.168,3.5c-.245.114-.51.186-.765.276h-1.172c-2.325-.88-2.929-1.766-2.929-4.3q0-16.54.008-33.081a.771.771,0,0,0-.477-.8,7.106,7.106,0,0,1-3.713-4.858c-.045-.184-.1-.366-.155-.549V437.692Z" transform="translate(-740.624 -436.871)" fill="#710038"/>
    <path id="Path_111" data-name="Path 111" d="M772.548,496.867a10.651,10.651,0,0,1-1.821-1,3.251,3.251,0,0,1-1.111-2.662c.006-5.507,0-11.013.012-16.518a1.308,1.308,0,0,0-.451-1.065c-.641-.6-1.256-1.229-1.862-1.864a5.839,5.839,0,0,1-1.674-4.127c-.012-5.293-.133-10.586.031-15.873a20.343,20.343,0,0,1,8.957-16.557A1.222,1.222,0,0,1,775.99,437a1.269,1.269,0,0,1,.662,1.266q-.009,27.47-.006,54.94a3.491,3.491,0,0,1-2.719,3.562,1.211,1.211,0,0,0-.21.1Z" transform="translate(-716.653 -436.871)" fill="#710038"/>
    <path id="Path_112" data-name="Path 112" d="M749.782,460.337a14.3,14.3,0,1,0,14.3-14.306,14.323,14.323,0,0,0-14.3,14.306Zm30.934,0a16.638,16.638,0,1,1-16.6-16.649,16.666,16.666,0,0,1,16.6,16.649Z" transform="translate(-734.079 -430.326)" fill="#710038"/>
    <path id="Path_113" data-name="Path 113" d="M762.729,468.705a23.1,23.1,0,0,1-12.533-3.442,1.215,1.215,0,0,1-.7-1.3,1.034,1.034,0,0,1,.978-.937,1.818,1.818,0,0,1,.98.271,20.107,20.107,0,0,0,25.863-3.93c.208-.233.394-.488.612-.71a1.134,1.134,0,0,1,1.586-.1,1.148,1.148,0,0,1,.194,1.578,6.638,6.638,0,0,1-.51.641,21.951,21.951,0,0,1-16.473,7.924Z" transform="translate(-732.122 -416.307)" fill="#710038"/>
    <path id="Path_114" data-name="Path 114" d="M760.314,440.738c7.112.114,12.464,2.325,16.885,6.751a2.2,2.2,0,0,1,.517.759,1.085,1.085,0,0,1-.527,1.3,1.135,1.135,0,0,1-1.4-.175c-.621-.564-1.2-1.172-1.853-1.7a20.109,20.109,0,0,0-21.489-2.552c-.088.043-.174.088-.265.127a1.175,1.175,0,0,1-1.637-.533,1.108,1.108,0,0,1,.61-1.553,37.36,37.36,0,0,1,4.764-1.739,38.414,38.414,0,0,1,4.4-.688Z" transform="translate(-731.215 -433.157)" fill="#710038"/>
    <path id="Path_115" data-name="Path 115" d="M750.043,460.42a1.128,1.128,0,0,1-1.1,1.182,1.23,1.23,0,0,1-1.259-1.182,1.174,1.174,0,0,1,1.172-1.19,1.219,1.219,0,0,1,1.19,1.19Z" transform="translate(-733.848 -415.399)" fill="#710038"/>
    <path id="Path_116" data-name="Path 116" d="M750.431,456.661a10.724,10.724,0,0,1,6.371-9.417,1.177,1.177,0,1,1,.986,2.117,8.379,8.379,0,0,0-5.015,7.626,1.181,1.181,0,0,1-1.186,1.249,1.2,1.2,0,0,1-1.157-1.28c0-.1,0-.2,0-.294Z" transform="translate(-731.206 -427.069)" fill="#710038"/>
    <path id="Path_117" data-name="Path 117" d="M756.482,449.017a1.151,1.151,0,0,1-1.17-1.192,1.164,1.164,0,0,1,1.165-1.147,1.191,1.191,0,0,1,1.209,1.17,1.173,1.173,0,0,1-1.2,1.168Z" transform="translate(-726.52 -427.453)" fill="#710038"/>
  </g>
</svg>
