<svg xmlns="http://www.w3.org/2000/svg" width="60.998" height="60.5" viewBox="0 0 60.998 60.5">
  <g id="Group_42219" data-name="Group 42219" transform="translate(0.08)">
    <path id="Exclusion_1" data-name="Exclusion 1" d="M58.716,40H1.578C.252,40,0,39.752,0,38.449q0-1.115,0-2.23c0-1.643,0-3.343,0-5.019A3.977,3.977,0,0,1,4.194,27H4.2l.32,0h.161l.459,0a9.418,9.418,0,0,1,1.671.116A3.882,3.882,0,0,1,10,30.917c.011.487.008.974.005,1.445,0,.209,0,.414,0,.614l1.968.783V18.043h2.011V33.95h6.98V11.034h-6.93v4.927H12V12.338q0-.336,0-.671c0-.478,0-.969,0-1.453C12.01,9.355,12.365,9,13.224,9c1.047,0,2.157,0,3.6,0H21V7.942q0-.535,0-1.07c0-.879,0-1.787,0-2.679.005-.815.369-1.182,1.18-1.189C22.51,3,22.866,3,23.3,3H25c0-.178,0-.353,0-.526,0-.428,0-.833,0-1.242C25.007.363,25.356.007,26.2,0c1.1,0,2.235,0,3.471,0S32.2,0,33.762,0C34.643,0,34.989.359,35,1.268c0,.384,0,.764,0,1.167v.031c0,.174,0,.352,0,.535h1.579c.449,0,.814,0,1.149,0,.936,0,1.269.342,1.271,1.289,0,1.121,0,2.218,0,3.379v.1Q39,8.379,39,9h4.482c1.331,0,2.358,0,3.329,0,.819,0,1.184.368,1.184,1.186,0,5.479,0,11.048,0,16.435,0,.073-.005.143-.012.232v.008c0,.032-.005.066-.008.1H46.007V11.045H39.032v22.9h6.946V29.034h1.981v4.753l1.384-.552.651-.26c0-.169,0-.345,0-.526,0-.427,0-.869,0-1.319a3.972,3.972,0,0,1,4.14-4.124h.006l.43,0h.005l.438,0a10.408,10.408,0,0,1,1.863.129,3.827,3.827,0,0,1,3.105,3.733c.028,2.2.02,4.441.013,6.606q0,.7,0,1.392A1.011,1.011,0,0,1,58.877,40C58.829,40,58.778,40,58.716,40ZM28.043,32.04v5.929h3.923V32.04H28.043Zm-13.993,4v1.925h6.92V36.042Zm24.978-.02v1.941h6.926V36.022ZM8.885,35H8.8a2.835,2.835,0,0,0-2.074.9,2.718,2.718,0,0,0-.683,2.057h5.937a2.808,2.808,0,0,0-.732-2.095A3.194,3.194,0,0,0,8.886,35Zm41.984,0-.145,0a2.777,2.777,0,0,0-2.019.911,2.686,2.686,0,0,0-.665,2.038h5.934a2.818,2.818,0,0,0-.736-2.1A3.214,3.214,0,0,0,50.868,35ZM25.031,26.05v1.923h1.921V26.05H25.031Zm3.989-.01v1.93h1.942V26.04H29.02Zm4.021-.014h0v1.922h1.921V26.027H33.042Zm-4.014-4v1.936h1.927V22.026H29.028Zm4.014,0h0v1.923h1.921V22.026H33.042Zm-8,.014v1.909h1.942V22.04Zm4-4.013h0V19.97h1.92V18.026h-1.92Zm3.985.022h0v1.914h1.945V18.049H33.028Zm-7.993-.015h0v1.923h1.936V18.033H25.035Zm4-3.982h0v1.923h1.922V14.052H29.03Zm4-.021v1.928H34.95V14.031Zm-8.007,0v1.92h1.923v-1.92Zm.007-3.983v1.922h1.921V10.052H25.031Zm3.994-.005v1.919h1.931V10.046Zm4.013-.008v1.915h1.927V10.038Zm-6.014-8V5.957h5.921V2.035Z" transform="translate(0.42 20)" fill="#fff" stroke="rgba(0,0,0,0)" stroke-miterlimit="10" stroke-width="1"/>
    <path id="Path_197" data-name="Path 197" d="M827.234,447.032a1.04,1.04,0,0,1-1.1-1.254c.29-1.722.606-3.442.87-5.17a1.066,1.066,0,0,0-.257-.8c-1.183-1.2-2.4-2.371-3.617-3.54a1.118,1.118,0,0,1-.425-1.216,1.068,1.068,0,0,1,1.005-.706c1.629-.229,3.253-.479,4.882-.7a1.051,1.051,0,0,0,.94-.658c.694-1.489,1.451-2.948,2.168-4.425.215-.443.487-.786,1.02-.782s.8.357,1.013.8c.728,1.5,1.489,2.977,2.2,4.482a.912.912,0,0,0,.795.572c1.566.213,3.131.439,4.7.663a1.057,1.057,0,0,1,.424.086c.305.209.742.407.833.7a1.257,1.257,0,0,1-.286,1.047c-1.185,1.229-2.421,2.409-3.658,3.588a.929.929,0,0,0-.33.971c.322,1.674.619,3.356.849,5.045a1.347,1.347,0,0,1-.4,1.067,1.223,1.223,0,0,1-1.079.049c-1.5-.727-2.968-1.507-4.42-2.318a1.185,1.185,0,0,0-1.314.016c-1.382.768-2.792,1.486-4.193,2.216-.236.123-.491.208-.622.263Z" transform="translate(-802.797 -427.789)" fill="#fff"/>
    <path id="Path_198" data-name="Path 198" d="M816.4,447.858c.7-.369,1.291-.664,1.866-.989a1.294,1.294,0,0,1,1.359,0c.589.326,1.191.63,1.88.99-.132-.75-.228-1.385-.357-2.014a1.355,1.355,0,0,1,.447-1.4c.488-.434.942-.908,1.49-1.442-.759-.108-1.374-.212-1.993-.281a1.393,1.393,0,0,1-1.243-.886c-.256-.593-.576-1.159-.909-1.82-.343.69-.655,1.255-.912,1.844a1.361,1.361,0,0,1-1.2.856c-.634.075-1.265.178-1.971.28.49.5.9.968,1.362,1.369a1.485,1.485,0,0,1,.507,1.562c-.123.6-.208,1.209-.33,1.935Zm-2.318,1.642c.177-1.056.389-2.2.546-3.356a1.02,1.02,0,0,0-.24-.741c-.717-.754-1.475-1.469-2.227-2.191a1.126,1.126,0,0,1-.453-1.2c.167-.558.619-.684,1.11-.754.989-.141,1.977-.292,2.969-.411a.9.9,0,0,0,.8-.568c.434-.944.919-1.865,1.369-2.8a1.033,1.033,0,0,1,1.978-.015c.455.934.941,1.855,1.367,2.8a.924.924,0,0,0,.851.587c.971.114,1.937.268,2.906.4.495.069.948.2,1.127.743s-.125.908-.486,1.254c-.705.679-1.385,1.385-2.111,2.041a.994.994,0,0,0-.33,1.045c.193,1,.4,2,.5,3.015a1.64,1.64,0,0,1-.334,1.1c-.309.38-.78.278-1.2.052-.935-.5-1.885-.977-2.811-1.492a.845.845,0,0,0-.923,0c-.965.531-1.939,1.051-2.927,1.538-.786.386-1.511-.1-1.481-1.047Z" transform="translate(-805.319 -425.73)" fill="#fff"/>
    <path id="Path_199" data-name="Path 199" d="M841.351,443.032c.527.539.957,1.018,1.428,1.451a1.38,1.38,0,0,1,.443,1.405c-.13.636-.224,1.279-.349,2.015.6-.315,1.117-.539,1.585-.843a1.652,1.652,0,0,1,1.973.017c.454.29.96.5,1.542.8-.125-.733-.209-1.329-.332-1.916a1.477,1.477,0,0,1,.514-1.559c.466-.4.87-.872,1.354-1.368-.7-.1-1.336-.2-1.971-.279a1.361,1.361,0,0,1-1.2-.856c-.262-.6-.579-1.171-.919-1.849-.336.673-.65,1.234-.9,1.822a1.393,1.393,0,0,1-1.243.888c-.619.069-1.233.172-1.929.271Zm4.073-6.5a5.218,5.218,0,0,1,.942.931c.507.908.956,1.847,1.389,2.793a.978.978,0,0,0,.882.642c.993.106,1.98.266,2.969.408a1.1,1.1,0,0,1,1.053.739,1.124,1.124,0,0,1-.444,1.208c-.749.723-1.508,1.438-2.226,2.191a1.015,1.015,0,0,0-.247.737c.132,1.01.331,2.011.5,3.018.084.5.139,1.006-.365,1.353a1.177,1.177,0,0,1-1.342-.095c-.9-.485-1.793-.973-2.712-1.411a1.034,1.034,0,0,0-.787,0c-.976.466-1.927.983-2.88,1.494-.422.225-.892.333-1.2-.044a1.641,1.641,0,0,1-.341-1.1c.1-1.013.3-2.016.5-3.016a1.04,1.04,0,0,0-.368-1.091,28.729,28.729,0,0,1-2.179-2.148,1.368,1.368,0,0,1-.338-1.086,1.347,1.347,0,0,1,.9-.7c1.035-.223,2.094-.337,3.147-.471a.89.89,0,0,0,.792-.573c.438-.966.9-1.923,1.416-2.848a5.22,5.22,0,0,1,.942-.934Z" transform="translate(-799.223 -425.776)" fill="#fff"/>
    <path id="Path_200" data-name="Path 200" d="M814.215,457.483a8.334,8.334,0,0,1-1.289-.662,1.783,1.783,0,0,0-2.364.006,4.751,4.751,0,0,1-1.047.552,1,1,0,0,1-1.415-1.121,6.871,6.871,0,0,1,.23-1.288,1.524,1.524,0,0,0-.65-1.923,3.187,3.187,0,0,1-.837-.833,1.582,1.582,0,0,1-.31-1.1,1.448,1.448,0,0,1,.909-.687c.593-.173,1.236-.166,1.843-.3a1.118,1.118,0,0,0,.642-.461c.33-.551.538-1.18.892-1.711a1.345,1.345,0,0,1,.891-.621,1.462,1.462,0,0,1,.956.621,9.131,9.131,0,0,1,.845,1.666.8.8,0,0,0,.748.536,10.152,10.152,0,0,1,1.847.279,1.372,1.372,0,0,1,.853.679,1.355,1.355,0,0,1-.273,1.051,8.159,8.159,0,0,1-1.282,1.275.953.953,0,0,0-.336,1.041c.128.589.229,1.185.32,1.78a1.051,1.051,0,0,1-1.174,1.22Z" transform="translate(-806.508 -423.288)" fill="#fff"/>
    <path id="Path_201" data-name="Path 201" d="M851.845,447.106a5.246,5.246,0,0,1,.96.861,11.327,11.327,0,0,1,.837,1.671.844.844,0,0,0,.79.576,8.635,8.635,0,0,1,1.785.271,1.485,1.485,0,0,1,.9.709,1.33,1.33,0,0,1-.293,1.043c-.4.5-.93.9-1.355,1.379a1.113,1.113,0,0,0-.247.748c.058.641.262,1.271.285,1.909a1.361,1.361,0,0,1-.373,1.021,1.3,1.3,0,0,1-1.081.081c-.752-.285-1.453-.972-2.18-.979-.7-.006-1.386.688-2.119.971a1.291,1.291,0,0,1-1.081-.06,1.24,1.24,0,0,1-.375-1.064,3.027,3.027,0,0,0-1.241-3.9.964.964,0,0,1-.408-1.206.983.983,0,0,1,1.024-.673,2.922,2.922,0,0,0,3.231-2.312c.11-.365.556-.629.945-1.043Z" transform="translate(-797.295 -423.341)" fill="#fff"/>
    <path id="Path_202" data-name="Path 202" d="M822.4,461.45h-2.921v-1.923H822.4v1.923Z" transform="translate(-803.525 -420.48)" fill="#fff"/>
    <path id="Path_203" data-name="Path 203" d="M839.792,461.449v-1.93h2.94v1.93Z" transform="translate(-798.853 -420.482)" fill="#fff"/>
    <path id="Path_204" data-name="Path 204" d="M822.412,465.519h-2.929v-1.94h2.929v1.94Z" transform="translate(-803.524 -419.547)" fill="#fff"/>
    <path id="Path_205" data-name="Path 205" d="M842.731,465.516h-2.923v-1.935h2.923v1.935Z" transform="translate(-798.849 -419.546)" fill="#fff"/>
    <path id="Path_206" data-name="Path 206" d="M839.8,457.38v-1.923h2.933v1.923Z" transform="translate(-798.852 -421.417)" fill="#fff"/>
    <path id="Path_207" data-name="Path 207" d="M822.415,467.641v1.924h-2.933v-1.924Z" transform="translate(-803.524 -418.611)" fill="#fff"/>
    <path id="Path_208" data-name="Path 208" d="M839.8,469.571v-1.919h2.931v1.919Z" transform="translate(-798.852 -418.609)" fill="#fff"/>
    <path id="Path_209" data-name="Path 209" d="M819.472,457.383v-1.927h2.937v1.927Z" transform="translate(-803.526 -421.418)" fill="#fff"/>
  </g>
</svg>
