<svg xmlns="http://www.w3.org/2000/svg" width="363.998" height="100" viewBox="0 0 363.998 100">
  <g id="Group_56503" data-name="Group 56503" transform="translate(-5809.497 -1615.867)">
    <path id="Path_7026" data-name="Path 7026" d="M241.53,279.4l.564-6.153H347.441l1.522-17.119h6.9l-2.1,23.272Zm84.608-19.78a4.433,4.433,0,0,1-1.81-.362,4.5,4.5,0,0,1-2.449-2.449,4.677,4.677,0,0,1,0-3.609,4.5,4.5,0,0,1,.98-1.469,4.927,4.927,0,0,1,1.469-1,4.615,4.615,0,0,1,4.194.288,4.575,4.575,0,0,1,1.661,1.714,4.833,4.833,0,0,1,1.693-1.714,4.3,4.3,0,0,1,2.363-.66,4.476,4.476,0,0,1,1.81.372,4.774,4.774,0,0,1,2.47,2.47,4.558,4.558,0,0,1,0,3.609,4.922,4.922,0,0,1-1,1.47,4.683,4.683,0,0,1-5.642.7,4.646,4.646,0,0,1-1.693-1.735,4.41,4.41,0,0,1-1.661,1.735,4.6,4.6,0,0,1-2.385.639Zm35.835-14.436h6.952L366.4,273.283h5.174l-.554,6.121H358.885l3.087-34.216Zm4.4,28.085h17.439l-.564,6.132H365.806l.564-6.132Zm10.1,0h17.439l-.564,6.132H375.909l.564-6.132Zm19.057.01a14.951,14.951,0,0,1-.564-4.333c0-.66.032-1.363.1-2.087a39.775,39.775,0,0,1,1.853-9.145,22.246,22.246,0,0,1,3.917-7.2,14.679,14.679,0,0,1,4.993-3.939,15.475,15.475,0,0,1,6.771-1.394,11.813,11.813,0,0,1,6.036,1.309,7.733,7.733,0,0,1,3.194,3.588,12.825,12.825,0,0,1,.883,2.96,22.151,22.151,0,0,1,.373,3.077c.053.958.085,1.81.085,2.534,0,.607-.021,1.416-.064,2.438s-.139,2.278-.277,3.769l-1.32,14.542H388.855l.532-6.121Zm19.653,0,.213-2.331.692-7.74c.2-2.289.32-3.8.341-4.557s.031-1.192.031-1.341a9.355,9.355,0,0,0-.341-2.768,6.275,6.275,0,0,0-.8-1.692,3,3,0,0,0-1.1-.947,4.1,4.1,0,0,0-1.448-.426c-.543-.053-1.16-.086-1.874-.086a5.435,5.435,0,0,0-3.226,1.15,10.64,10.64,0,0,0-2.821,3.311,18.021,18.021,0,0,0-1.64,3.662,24.291,24.291,0,0,0-1.011,4.631,17.741,17.741,0,0,0-.128,2.055,7.545,7.545,0,0,0,1.278,4.652,5.514,5.514,0,0,0,2.4,1.874,9.047,9.047,0,0,0,3.343.554Zm43.1,6.121h-5.11l-.66,7.048H445.62l.436-4.248.245-2.8h-6.239a27.64,27.64,0,0,1-6.441-.66,9.708,9.708,0,0,1-4.344-2.151,6.838,6.838,0,0,1-2.129-3.407,15.991,15.991,0,0,1-.521-4.109c0-.713.032-1.448.085-2.214a41.527,41.527,0,0,1,1.874-9.145,22.017,22.017,0,0,1,3.9-7.2,14.782,14.782,0,0,1,4.993-3.939,15.54,15.54,0,0,1,6.771-1.394,11.747,11.747,0,0,1,6.047,1.309,7.654,7.654,0,0,1,3.184,3.588,14.346,14.346,0,0,1,1.245,5.068c.064,1.586.1,2.725.1,3.407q0,2.938-.309,6.3l-.777,8.421h5.111l-.564,6.121Zm-11.445-6.121.224-2.331.682-7.74c.213-2.289.32-3.8.341-4.557s.032-1.192.032-1.341a9.355,9.355,0,0,0-.341-2.768,5.468,5.468,0,0,0-.777-1.692,3.278,3.278,0,0,0-1.1-.947,3.964,3.964,0,0,0-1.448-.426c-.554-.053-1.182-.086-1.884-.086a5.457,5.457,0,0,0-3.215,1.15,10.409,10.409,0,0,0-2.842,3.311,19.975,19.975,0,0,0-1.608,3.662,26.933,26.933,0,0,0-1.043,4.631c-.075.745-.117,1.437-.117,2.055a12.761,12.761,0,0,0,.213,2.267,5.8,5.8,0,0,0,1.065,2.385,5.429,5.429,0,0,0,2.385,1.874,9.143,9.143,0,0,0,3.354.554Zm6.889-.01h17.438L470.6,279.4H453.157l.564-6.132Zm18.652.01,1.554-17.151h6.9l-1.533,17.119h5.089l.6-6.388a39.3,39.3,0,0,1,1.853-9.177,22.06,22.06,0,0,1,3.917-7.2,14.971,14.971,0,0,1,4.983-3.917,15.234,15.234,0,0,1,6.771-1.416,11.813,11.813,0,0,1,6.036,1.309,7.615,7.615,0,0,1,3.194,3.588,14.707,14.707,0,0,1,.873,2.97,22.844,22.844,0,0,1,.394,3.1c.053.958.075,1.81.075,2.534,0,.607-.021,1.416-.064,2.438s-.128,2.278-.277,3.769l-.777,8.421H517.1l-.564,6.121H466.763l.522-6.121Zm32.716-.032.224-2.331.649-7.708c.213-2.31.33-3.832.341-4.588s.032-1.2.032-1.373a9.725,9.725,0,0,0-.309-2.736,5.452,5.452,0,0,0-.8-1.671,3.041,3.041,0,0,0-1.086-.937,4.147,4.147,0,0,0-1.469-.426c-.554-.053-1.182-.086-1.884-.086a5.468,5.468,0,0,0-3.226,1.139,9.62,9.62,0,0,0-2.8,3.29c-.469.873-.873,1.714-1.214,2.534a22.99,22.99,0,0,0-.841,2.545,26.394,26.394,0,0,0-.543,2.757c-.138.969-.255,2.023-.362,3.173l-.533,6.419Zm6.419.021h17.439l-.564,6.132H510.944l.564-6.132ZM540.2,238.161a4.686,4.686,0,0,1-1.81-.351,4.84,4.84,0,0,1-1.48-1,4.534,4.534,0,0,1-1.352-3.29,4.642,4.642,0,0,1,.351-1.81,4.549,4.549,0,0,1,1-1.469,5,5,0,0,1,1.48-.99,4.344,4.344,0,0,1,1.81-.384,4.2,4.2,0,0,1,1.778.384,4.875,4.875,0,0,1,1.48.99,4.248,4.248,0,0,1,1,1.469,4.705,4.705,0,0,1,0,3.62,4.392,4.392,0,0,1-1,1.479,4.727,4.727,0,0,1-1.48,1,4.532,4.532,0,0,1-1.778.351Zm-16,35.121h18.439a5.7,5.7,0,0,1-.394-.809,7.749,7.749,0,0,1-.341-1.15,7.567,7.567,0,0,1-.171-1.193c-.021-.351-.032-.628-.032-.841,0-.266.011-.533.032-.809l1-11.1c.053-.617.1-1.107.106-1.448s.011-.533.011-.575a3.524,3.524,0,0,0-.373-1.629,2.87,2.87,0,0,0-1.384-1.245,7.132,7.132,0,0,0-3.013-.5l-1.437,16.161h-6.92l2.119-22.953h6.867a19.585,19.585,0,0,1,5,.543,9.851,9.851,0,0,1,3.257,1.448,6.039,6.039,0,0,1,1.874,2.14,7.938,7.938,0,0,1,.8,2.417,16.833,16.833,0,0,1,.171,2.247q0,.335-.032,1.213c-.021.586-.075,1.31-.16,2.182l-.969,10.732c-.021.308-.032.639-.032.968,0,.16.011.415.021.767a9.01,9.01,0,0,0,.139,1.246,7.747,7.747,0,0,0,.341,1.309,1.921,1.921,0,0,0,.564.852l-.564,6.153H523.677l.522-6.121Z" transform="translate(5623.682 1387)" fill="#f7f7f7"/>
    <path id="Path_7027" data-name="Path 7027" d="M219.906,359.225l-6.356,36.3h-7.038l3.129-18.172H198.712l-3.128,18.172h-7.038l6.356-36.3h7.038l-2.358,13.233H210.5l2.367-13.233Zm30.228,1.928a9.33,9.33,0,0,1,2.179,3.326,14.846,14.846,0,0,1,.986,3.756,26.938,26.938,0,0,1,.224,3.344c0,.493-.027,1.246-.089,2.277a35.029,35.029,0,0,1-.457,3.658,37.681,37.681,0,0,1-1.694,6.231,28.031,28.031,0,0,1-2.77,5.594,19.735,19.735,0,0,1-1.838,2.349,14.931,14.931,0,0,1-2.232,1.972,11.481,11.481,0,0,1-2.582,1.363,8.082,8.082,0,0,1-2.86.511h-6.723a7.035,7.035,0,0,1-2.663-.484,7.4,7.4,0,0,1-2.143-1.318,7.994,7.994,0,0,1-1.613-1.955,10.8,10.8,0,0,1-1.067-2.439A16.52,16.52,0,0,1,224,385.17c-.018-1.076-.027-1.686-.027-1.82a31.933,31.933,0,0,1,.556-5.836,39.172,39.172,0,0,1,.986-4.321,29.852,29.852,0,0,1,1.668-4.465,24.69,24.69,0,0,1,2.465-4.16,15.816,15.816,0,0,1,3.416-3.416,10.81,10.81,0,0,1,2.663-1.408,8.7,8.7,0,0,1,2.932-.511h6.616a7.077,7.077,0,0,1,2.734.511,6.454,6.454,0,0,1,2.125,1.408Zm-6.563,24.009a28.917,28.917,0,0,0,1.434-3.667,33.01,33.01,0,0,0,.977-3.98c.162-.905.269-1.775.332-2.582s.09-1.569.09-2.25c0-.171,0-.511-.009-1.022a18.2,18.2,0,0,0-.171-1.91,14.282,14.282,0,0,0-.449-2.08,10.231,10.231,0,0,0-.457-1.2,5.4,5.4,0,0,0-.682-1.085,3.729,3.729,0,0,0-.986-.843,4.072,4.072,0,0,0-1.372-.475H239.95a4.093,4.093,0,0,0-1.434.367,6.271,6.271,0,0,0-1.273.816,8.29,8.29,0,0,0-1.121,1.121,14.435,14.435,0,0,0-.959,1.3,17.567,17.567,0,0,0-1.175,2.08c-.367.762-.717,1.569-1.031,2.421s-.592,1.721-.834,2.627-.448,1.811-.609,2.717-.278,1.8-.367,2.716-.126,1.721-.126,2.4c0,.493.018,1.148.072,1.972a12.567,12.567,0,0,0,.556,2.788,5.37,5.37,0,0,0,1.524,2.492,3.5,3.5,0,0,0,.915.6,2.7,2.7,0,0,0,1.13.215h2.313a3.7,3.7,0,0,0,1.927-.537,7.714,7.714,0,0,0,1.686-1.354,11.136,11.136,0,0,0,1.38-1.784c.4-.645.753-1.273,1.049-1.864Zm14.782,10.373.735-4.833h13.188a5.615,5.615,0,0,0,1.686-.251,5.78,5.78,0,0,0,1.506-.708,6.128,6.128,0,0,0,2.2-2.537,5.776,5.776,0,0,0,.762-2.008,13.283,13.283,0,0,0,.1-1.354,7.3,7.3,0,0,0-.126-1.336,3.5,3.5,0,0,0-1.434-2.295,4.544,4.544,0,0,0-2.69-.807h-4.465a8.517,8.517,0,0,1-4.2-1.022,6.37,6.37,0,0,1-2.734-2.968,5.635,5.635,0,0,1-.744-2.062,12.338,12.338,0,0,1-.144-1.775c0-.35.027-.834.09-1.453a11.322,11.322,0,0,1,.5-2.25,13.136,13.136,0,0,1,1.031-2.465,12.158,12.158,0,0,1,2.448-3.138,12.855,12.855,0,0,1,3.093-2.142,9.941,9.941,0,0,1,2.062-.673,10.722,10.722,0,0,1,2.2-.224h12.578l-.861,4.832H274.7a4.531,4.531,0,0,0-1.515.26,5.114,5.114,0,0,0-1.326.717,6.086,6.086,0,0,0-1.1,1.049,7.872,7.872,0,0,0-.843,1.255,6.583,6.583,0,0,0-.708,1.945,10.139,10.139,0,0,0-.126,1.318,4.894,4.894,0,0,0,.126,1.1,3.348,3.348,0,0,0,1.264,2.142,3.945,3.945,0,0,0,2.34.69h4.465a9.82,9.82,0,0,1,3.2.511,7.388,7.388,0,0,1,2.573,1.488,6.527,6.527,0,0,1,1.631,2.143,9.386,9.386,0,0,1,.789,2.582,11.72,11.72,0,0,1,.126,1.739,12.689,12.689,0,0,1-1.7,6.168,13.924,13.924,0,0,1-4.428,4.662,10.4,10.4,0,0,1-5.738,1.694ZM320.2,361.153a9.324,9.324,0,0,1,2.178,3.326,14.87,14.87,0,0,1,.986,3.756,26.927,26.927,0,0,1,.224,3.344c0,.493-.027,1.246-.09,2.277a34.751,34.751,0,0,1-.457,3.658,37.678,37.678,0,0,1-1.694,6.231,28.033,28.033,0,0,1-2.77,5.594,19.787,19.787,0,0,1-1.838,2.349,14.931,14.931,0,0,1-2.232,1.972,11.482,11.482,0,0,1-2.582,1.363,8.078,8.078,0,0,1-2.86.511h-6.724a7.037,7.037,0,0,1-2.663-.484,7.391,7.391,0,0,1-2.142-1.318,7.987,7.987,0,0,1-1.614-1.955,10.8,10.8,0,0,1-1.067-2.439,16.515,16.515,0,0,1-.789-4.169c-.018-1.076-.027-1.686-.027-1.82a31.977,31.977,0,0,1,.556-5.836,39.166,39.166,0,0,1,.986-4.321,29.846,29.846,0,0,1,1.667-4.465,24.694,24.694,0,0,1,2.465-4.16,15.819,15.819,0,0,1,3.416-3.416,10.808,10.808,0,0,1,2.662-1.408,8.708,8.708,0,0,1,2.932-.511h6.616a7.079,7.079,0,0,1,2.735.511,6.46,6.46,0,0,1,2.125,1.408Zm-6.563,24.009a28.908,28.908,0,0,0,1.435-3.667,33.19,33.19,0,0,0,.977-3.98c.161-.905.269-1.775.332-2.582s.089-1.569.089-2.25c0-.171,0-.511-.009-1.022a18.048,18.048,0,0,0-.17-1.91,14.361,14.361,0,0,0-.448-2.08,10.327,10.327,0,0,0-.457-1.2,5.375,5.375,0,0,0-.682-1.085,3.722,3.722,0,0,0-.986-.843,4.074,4.074,0,0,0-1.371-.475h-2.331a4.086,4.086,0,0,0-1.434.367,6.273,6.273,0,0,0-1.273.816,8.285,8.285,0,0,0-1.12,1.121,14.346,14.346,0,0,0-.96,1.3,17.566,17.566,0,0,0-1.174,2.08c-.368.762-.717,1.569-1.031,2.421s-.592,1.721-.834,2.627-.448,1.811-.61,2.717-.278,1.8-.367,2.716-.126,1.721-.126,2.4c0,.493.018,1.148.072,1.972a12.511,12.511,0,0,0,.556,2.788,5.37,5.37,0,0,0,1.524,2.492,3.49,3.49,0,0,0,.914.6,2.7,2.7,0,0,0,1.13.215H307.6a3.706,3.706,0,0,0,1.927-.537,7.723,7.723,0,0,0,1.685-1.354,11.161,11.161,0,0,0,1.381-1.784c.4-.645.753-1.273,1.049-1.864Zm52.47-25.937-6.329,36.3h-7.065l4-23.031L345.57,395.525h-3.649l-3.174-23.031-4,23.031h-7.038l6.356-36.3h7.038l3.918,28.393,14.048-28.393Zm-.71,36.3,20.88-36.3h4.994l8.167,36.3h-7.351l-2.708-11.556h-12.21l-6.545,11.556Zm14.631-16.4H388.3l-2.152-9.826-6.123,9.826Z" transform="translate(5650.778 1320.333)" fill="#ffd600"/>
    <path id="Path_7028" data-name="Path 7028" d="M631.436,390.693h9.037l3.455-31.468h6.984l-3.428,31.468h11.558l-.547,4.841H630.889l.547-4.841Z" transform="translate(5424.557 1320.333)" fill="#710038"/>
    <path id="Path_7029" data-name="Path 7029" d="M133.853,359.225l-6.356,36.3h7.038l2-11.9,1.39-1.4,6.518,13.3h7.432L143,376.591l15.044-17.365h-7.352l-12.5,15,2.7-15Z" transform="translate(5682 1320.333)" fill="#ffd600" fill-rule="evenodd"/>
    <path id="Path_7030" data-name="Path 7030" d="M659.194,344.257h6.881l-.318,2.929h-6.881l.318-2.929Z" transform="translate(5410.244 1327.987)" fill="#f7f7f7" fill-rule="evenodd"/>
    <path id="Path_7031" data-name="Path 7031" d="M847.969,228.867a4.344,4.344,0,0,0-1.81.384,5,5,0,0,0-1.48.99,4.55,4.55,0,0,0-1,1.469,4.839,4.839,0,0,0,0,3.62,4.714,4.714,0,0,0,1,1.479,4.842,4.842,0,0,0,1.48,1,4.686,4.686,0,0,0,1.81.351,4.532,4.532,0,0,0,1.778-.351,4.726,4.726,0,0,0,1.48-1,4.393,4.393,0,0,0,1-1.479,4.706,4.706,0,0,0,0-3.62,4.249,4.249,0,0,0-1-1.469,4.875,4.875,0,0,0-1.48-.99,4.2,4.2,0,0,0-1.778-.384Z" transform="translate(5315.913 1387)" fill="#ffd600" fill-rule="evenodd"/>
    <path id="Path_7032" data-name="Path 7032" d="M422.618,277.5a4.434,4.434,0,0,0-.372-1.8,4.775,4.775,0,0,0-2.47-2.47,4.477,4.477,0,0,0-1.81-.372,4.3,4.3,0,0,0-2.363.66,4.833,4.833,0,0,0-1.693,1.714,4.575,4.575,0,0,0-1.661-1.714,4.615,4.615,0,0,0-4.194-.288,4.928,4.928,0,0,0-1.469,1,4.5,4.5,0,0,0-.98,1.469,4.677,4.677,0,0,0,0,3.609,4.5,4.5,0,0,0,2.449,2.449,4.433,4.433,0,0,0,1.81.362,4.6,4.6,0,0,0,2.385-.639,4.41,4.41,0,0,0,1.661-1.735,4.647,4.647,0,0,0,1.693,1.735,4.672,4.672,0,0,0,5.642-.7,4.921,4.921,0,0,0,1-1.47,4.448,4.448,0,0,0,.372-1.81Z" transform="translate(5539.956 1364.501)" fill="#ffd600" fill-rule="evenodd"/>
  </g>
</svg>
